<svg id="V_Primary" xmlns="http://www.w3.org/2000/svg" viewBox="0 0 582.6 533.4">
  <style>
    .st0{fill:#262626}.st9{fill:#1a1a1a}.st15{fill:none}.st17{fill:#fff}.st87{fill:#666}.st96{fill:#4d4d4d}
  </style>
  <g id="script">
    <path d="M116.6 533.4v-50.3c0-9.8-2-11.7-12.3-11.7h-18v61.9H58.1v-61.8l-30.1.1v61.8H0v-88l104.9-.4c31.7-.1 39.9 7.6 39.9 37.6v50.7h-28.2zM545.5 443.5l-61.6.2v24.4l61.7-.2c8.5 0 9.3.1 9.3 6l-44.6.1c-15.4 0-33.7 5.2-33.6 29.7 0 24.5 18.4 29.6 33.8 29.6h72.2l-.1-57.5c-.2-26.5-7-32.4-37.1-32.3zm9.4 65.3h-44.6c-5.5 0-6.3-2.8-6.3-5.5s.7-5.5 6.3-5.5l44.6-.1v11.1zM394.4 470.3l27-.1c23.9-.1 26.2 3.2 26.2 18.4s-2.3 18.4-26.2 18.5h-27v-36.8zm-168.5 38.9h-44.6c-5.5 0-6.3-2.7-6.3-5.4s.7-5.4 6.3-5.4l44.6-.1v10.9zm198.4-65.3l-72.2.3-98.6 68.7v-36.2c0-26.3-6.7-32.1-36.9-32l-61.7.2V469l61.7-.2c8.5 0 9.3.1 9.3 5.9l-44.6.1c-15.4 0-33.7 5.1-33.7 29.3 0 24.1 18.3 29.2 33.7 29.2h87l98.7-68.6v68.6h57.3c40 0 51-9.6 51-44.8 0-35.1-11-44.7-51-44.6zm-83.8.3l-78.8.3v26.1l41-.1 37.8-26.3zm-60.8 89.2h78.9v-26.2h-41.2l-37.7 26.2z"/>
    <path class="st0" d="M117.2 532.7v-49.6c0-10.3-2.2-12.3-12.9-12.3H85.7v61.9H58.8v-61.8l-31.4.1v61.8H.6v-86.7l104.3-.4c31.2-.1 39.3 7.5 39.3 37v50.1l-27-.1zM510.4 532.7c-21.6 0-33.1-10-33.1-28.9s11.4-29 33-29l45.2-.1v-.1c0-7-.9-7.2-9.9-7.2l-61 .2v-23.2l61-.2c29.8-.1 36.3 5.5 36.3 31.7l.1 56.8h-71.6zm-.1-35.4c-4.7 0-6.9 2-6.9 6.1 0 4.2 2.2 6.1 6.9 6.1h45.2v-12.3l-45.2.1zM448.3 488.6c0-15.5-2.5-19.1-26.8-19l-27.7.1v38.1h27.7c24.3-.1 26.8-3.7 26.8-19.2zm-274 15.2c0 4.1 2.2 6 6.9 6h45.3v-12.1l-45.3.1c-4.7-.1-6.9 1.9-6.9 6zm250 28.9h-56.7v-69.2l-99.5 69.2h-86.8c-21.7 0-33.1-9.9-33.1-28.6s11.4-28.6 33.1-28.6l45.3-.1v-.1c0-6.9-.8-7.1-9.9-7.1l-61.1.2v-22.9l61.1-.2c29.8-.1 36.3 5.5 36.3 31.3V514l99.4-69.2 72-.2c39.7-.1 50.3 9.1 50.3 44-.1 34.8-10.7 44.1-50.4 44.1zM262.4 470v-24.9l76.1-.3-35.9 25-40.2.2zm95.6 37.8v24.9h-76.2l35.8-24.9H358z"/>
    <linearGradient id="SVGID_1_" gradientUnits="userSpaceOnUse" x1="533.529" y1="531.421" x2="533.529" y2="445.425">
      <stop offset=".1"/>
      <stop offset=".9" stop-color="#666"/>
    </linearGradient>
    <path d="M545.5 445.4l-59.1.2 4.7 4.8 54.4-.2c24.9-.1 30.2 4.5 30.3 25.6l.1 50.7 4.8 4.8-.1-55.5c-.1-25.4-6-30.5-35.1-30.4z" fill="url(#SVGID_1_)"/>
    <linearGradient id="SVGID_2_" gradientUnits="userSpaceOnUse" x1="529.5" y1="531.466" x2="529.5" y2="445.425">
      <stop offset=".15" stop-color="#1a1a1a"/>
      <stop offset=".45" stop-color="#666"/>
      <stop offset=".75" stop-color="#b3b3b3"/>
      <stop offset="1" stop-color="#666"/>
    </linearGradient>
    <path d="M510.3 490.2c-8.5 0-13.8 5.1-13.8 13.2s5.3 13.2 13.9 13.2h52.2l-.1-26.5-52.2.1zm0 20.6c-5.4 0-8.2-2.5-8.2-7.4s2.7-7.4 8.1-7.4l46.5-.1v14.9h-46.4z" fill="url(#SVGID_2_)"/>
    <linearGradient id="SVGID_3_" gradientUnits="userSpaceOnUse" x1="529.579" y1="531.427" x2="529.579" y2="445.425">
      <stop offset=".15" stop-color="#1a1a1a"/>
      <stop offset=".45" stop-color="#666"/>
      <stop offset=".75" stop-color="#b3b3b3"/>
      <stop offset="1" stop-color="#666"/>
    </linearGradient>
    <path d="M580.5 475.9c-.1-25.5-5.9-30.6-35-30.5l-59.8.2v20.6l59.8-.2c10 0 11.2.9 11.2 8.5v1.4l-46.5.1c-21.1 0-31.8 9.4-31.8 27.7 0 18.3 10.8 27.7 31.9 27.7h70.3l-.1-55.5zm-70.2 49.7c-17.9 0-26.2-6.9-26.2-21.9 0-15 8.2-21.9 26.1-21.9l52.2-.1v-7.2c0-13.3-7-14.3-16.9-14.3l-54.1.2v-9l54.1-.2c24.4-.1 29.3 4 29.3 24.7l.1 49.7h-64.6z" fill="url(#SVGID_3_)"/>
    <linearGradient id="SVGID_4_" gradientUnits="userSpaceOnUse" x1="72.411" y1="531.465" x2="72.411" y2="445.425">
      <stop offset=".15" stop-color="#1a1a1a"/>
      <stop offset=".45" stop-color="#666"/>
      <stop offset=".75" stop-color="#b3b3b3"/>
      <stop offset="1" stop-color="#666"/>
    </linearGradient>
    <path d="M104.9 446.9l-103 .4v84.2h24.2v-61.8l33.9-.1v61.8h24.4v-61.9l19.9-.1c11.4 0 14.2 2.6 14.2 13.6v48.4H143v-48.8c-.1-28.8-7.6-35.8-38.1-35.7zm19.3 78.8V483c0-14.1-5.4-19.3-19.9-19.3l-25.6.1v61.9h-13v-61.9l-45.2.2v61.7H7.6v-72.8l97.4-.3c26-.1 32.3 5.8 32.3 30v43.1h-13.1z" fill="url(#SVGID_4_)"/>
    <linearGradient id="SVGID_5_" gradientUnits="userSpaceOnUse" x1="72.411" y1="531.457" x2="72.411" y2="446.928">
      <stop offset=".1"/>
      <stop offset=".9" stop-color="#666"/>
    </linearGradient>
    <path d="M104.9 446.9l-103 .4 4.7 4.7 98.3-.3c26.4-.1 33.3 6.3 33.3 30.9v44.1h-15l-4.8 4.8h24.5v-48.8c0-28.9-7.5-35.9-38-35.8z" fill="url(#SVGID_5_)"/>
    <linearGradient id="SVGID_6_" gradientUnits="userSpaceOnUse" x1="101.448" y1="531.457" x2="101.448" y2="464.758">
      <stop offset=".1" stop-color="#1a1a1a"/>
      <stop offset=".5" stop-color="#4d4d4d"/>
      <stop offset=".9" stop-color="#1a1a1a"/>
    </linearGradient>
    <path d="M104.3 464.8l-24.6.1 4.7 4.7 19.9-.1c11.4 0 14.2 2.6 14.2 13.6v48.4l4.8-4.8v-43.6c-.1-13.6-5-18.4-19-18.3z" fill="url(#SVGID_6_)"/>
    <linearGradient id="SVGID_7_" gradientUnits="userSpaceOnUse" x1="72.22" y1="531.461" x2="72.22" y2="464.825">
      <stop offset=".1"/>
      <stop offset=".5" stop-color="#666"/>
      <stop offset=".9" stop-color="#999"/>
    </linearGradient>
    <path fill="url(#SVGID_7_)" d="M79.7 464.8v61.9H64.8l-4.8 4.8h24.4v-61.9z"/>
    <linearGradient id="SVGID_8_" gradientUnits="userSpaceOnUse" x1="62.395" y1="531.461" x2="62.395" y2="464.865">
      <stop offset=".1" stop-color="#1a1a1a"/>
      <stop offset=".5" stop-color="#4d4d4d"/>
      <stop offset=".9" stop-color="#999"/>
    </linearGradient>
    <path fill="url(#SVGID_8_)" d="M60 469.6v61.9l4.8-4.8v-61.8z"/>
    <path class="st9" d="M21.4 465l4.7 4.7 33.9-.1 4.8-4.7z"/>
    <linearGradient id="SVGID_9_" gradientUnits="userSpaceOnUse" x1="14.004" y1="531.466" x2="14.004" y2="464.983">
      <stop offset=".1"/>
      <stop offset=".5" stop-color="#666"/>
      <stop offset=".9"/>
    </linearGradient>
    <path fill="url(#SVGID_9_)" d="M21.4 465v61.7H6.6l-4.7 4.8h24.2v-61.8z"/>
    <linearGradient id="SVGID_10_" gradientUnits="userSpaceOnUse" x1="529.579" y1="531.427" x2="529.579" y2="475.936">
      <stop offset=".1"/>
      <stop offset=".9" stop-color="#8c8c8c"/>
    </linearGradient>
    <path d="M575.9 526.6h-65.6c-18.5 0-27.1-7.2-27.1-22.8 0-15.6 8.5-22.9 27-22.9l51.2-.1-4.8-4.8-46.5.1c-21.1 0-31.8 9.4-31.8 27.7 0 18.3 10.8 27.7 31.9 27.7h70.3l-4.6-4.9z" fill="url(#SVGID_10_)"/>
    <linearGradient id="SVGID_11_" gradientUnits="userSpaceOnUse" x1="523.633" y1="480.765" x2="523.633" y2="461.22">
      <stop offset=".105" stop-color="#262626"/>
      <stop offset=".9" stop-color="#1a1a1a"/>
    </linearGradient>
    <path d="M545.5 461.2l-55.1.2-4.7 4.8 59.8-.2c10 0 11.2.9 11.2 8.5v1.4l4.8 4.8v-6.3c0-12.3-6.4-13.2-16-13.2z" fill="url(#SVGID_11_)"/>
    <linearGradient id="SVGID_12_" gradientUnits="userSpaceOnUse" x1="559.184" y1="515.609" x2="559.184" y2="491.056">
      <stop offset=".1" stop-color="#4d4d4d"/>
      <stop offset=".9"/>
    </linearGradient>
    <path fill="url(#SVGID_12_)" d="M556.8 495.9v14.9l4.8 4.8-.1-24.5z"/>
    <linearGradient id="SVGID_13_" gradientUnits="userSpaceOnUse" x1="529.497" y1="515.644" x2="529.497" y2="491.056">
      <stop offset=".1" stop-color="#d9d9d9"/>
      <stop offset=".177" stop-color="#a6a6a6"/>
      <stop offset=".269" stop-color="#6f6f6f"/>
      <stop offset=".348" stop-color="#484848"/>
      <stop offset=".411" stop-color="#2f2f2f"/>
      <stop offset=".45" stop-color="#262626"/>
      <stop offset=".9"/>
    </linearGradient>
    <path d="M510.3 510.8c-5.4 0-8.2-2.5-8.2-7.4s2.7-7.4 8.1-7.4l46.5-.1 4.7-4.8-51.2.1c-8.1 0-12.9 4.6-12.9 12.3 0 7.7 4.8 12.2 12.9 12.2h51.3l-4.8-4.8-46.4-.1z" fill="url(#SVGID_13_)"/>
    <path class="st15" d="M510.3 496c-5.4 0-8.2 2.5-8.1 7.4 0 4.9 2.8 7.4 8.2 7.4h46.5v-14.9l-46.6.1zM175 503.8c0 2.7.7 5.4 6.3 5.4h44.6v-10.9l-44.6.1c-5.6 0-6.3 2.7-6.3 5.4zM447.6 488.6c0-15.2-2.3-18.4-26.2-18.4l-27 .1v36.8h27c24-.1 26.2-3.3 26.2-18.5z"/>
    <path class="st0" d="M285.8 531.4z"/>
    <linearGradient id="SVGID_14_" gradientUnits="userSpaceOnUse" x1="285.84" y1="531.442" x2="285.84" y2="531.113">
      <stop offset=".226" stop-color="#999"/>
      <stop offset=".775" stop-color="#c5c5c5"/>
      <stop offset="1" stop-color="#d9d9d9"/>
    </linearGradient>
    <path fill="url(#SVGID_14_)" d="M285.8 531.4z"/>
    <path class="st17" d="M317.6 509.4l.4-.3z"/>
    <path class="st0" d="M424.3 450.7l-57.3.1z"/>
    <linearGradient id="SVGID_15_" gradientUnits="userSpaceOnUse" x1="395.619" y1="1205.593" x2="395.619" y2="-303.904">
      <stop offset=".15" stop-color="#1a1a1a"/>
      <stop offset=".45" stop-color="#666"/>
      <stop offset=".75" stop-color="#b3b3b3"/>
      <stop offset="1" stop-color="#666"/>
    </linearGradient>
    <path fill="url(#SVGID_15_)" d="M424.3 450.7l-57.3.1z"/>
    <path class="st0" d="M373.6 451.9l-4.8 9.2v70.3l4.8-4.8z"/>
    <linearGradient id="SVGID_16_" gradientUnits="userSpaceOnUse" x1="371.203" y1="531.438" x2="371.203" y2="444.127">
      <stop offset=".15" stop-color="#1a1a1a"/>
      <stop offset=".45" stop-color="#666"/>
      <stop offset=".75" stop-color="#b3b3b3"/>
      <stop offset="1" stop-color="#666"/>
    </linearGradient>
    <path fill="url(#SVGID_16_)" d="M373.6 451.9l-4.8 9.2v70.3l4.8-4.8z"/>
    <path class="st0" d="M161.5 452.2l-4.7-4.8v19.7l4.7-4.8z"/>
    <linearGradient id="SVGID_17_" gradientUnits="userSpaceOnUse" x1="159.133" y1="531.454" x2="159.133" y2="444.88">
      <stop offset=".15" stop-color="#1a1a1a"/>
      <stop offset=".45" stop-color="#666"/>
      <stop offset=".75" stop-color="#b3b3b3"/>
      <stop offset="1" stop-color="#666"/>
    </linearGradient>
    <path fill="url(#SVGID_17_)" d="M161.5 452.2l-4.7-4.8v19.7l4.7-4.8z"/>
    <path class="st0" d="M246.8 525.6l4.8-9.1v-39.9h-4.8z"/>
    <linearGradient id="SVGID_18_" gradientUnits="userSpaceOnUse" x1="249.223" y1="531.448" x2="249.223" y2="444.547">
      <stop offset=".15" stop-color="#1a1a1a"/>
      <stop offset=".45" stop-color="#666"/>
      <stop offset=".75" stop-color="#b3b3b3"/>
      <stop offset="1" stop-color="#666"/>
    </linearGradient>
    <path fill="url(#SVGID_18_)" d="M246.8 525.6l4.8-9.1v-39.9h-4.8z"/>
    <path class="st0" d="M216.6 451.3v-4.8l-59.2.3 4.8 4.7z"/>
    <linearGradient id="SVGID_19_" gradientUnits="userSpaceOnUse" x1="187.018" y1="534.559" x2="187.018" y2="444.601">
      <stop offset=".15" stop-color="#1a1a1a"/>
      <stop offset=".45" stop-color="#666"/>
      <stop offset=".75" stop-color="#b3b3b3"/>
      <stop offset="1" stop-color="#666"/>
    </linearGradient>
    <path fill="url(#SVGID_19_)" d="M216.6 451.3v-4.8l-59.2.3 4.8 4.7z"/>
    <path class="st0" d="M246.8 476.6h4.8c0-25.2-5.9-30.2-35-30.1v4.8c24.9-.1 30.2 4.4 30.2 25.3z"/>
    <linearGradient id="SVGID_20_" gradientUnits="userSpaceOnUse" x1="234.097" y1="531.261" x2="234.097" y2="444.673">
      <stop offset=".15" stop-color="#1a1a1a"/>
      <stop offset=".45" stop-color="#666"/>
      <stop offset=".75" stop-color="#b3b3b3"/>
      <stop offset="1" stop-color="#666"/>
    </linearGradient>
    <path d="M246.8 476.6h4.8c0-25.2-5.9-30.2-35-30.1v4.8c24.9-.1 30.2 4.4 30.2 25.3z" fill="url(#SVGID_20_)"/>
    <linearGradient id="SVGID_21_" gradientUnits="userSpaceOnUse" x1="204.521" y1="525.558" x2="204.521" y2="446.548">
      <stop offset=".1"/>
      <stop offset=".9" stop-color="#666"/>
    </linearGradient>
    <path d="M251.6 476.6c0-25.2-5.9-30.2-35-30.1l-59.2.2 4.7 4.7 54.4-.2c24.9-.1 30.3 4.4 30.3 25.3v48.9l4.8-9.1v-39.7z" fill="url(#SVGID_21_)"/>
    <linearGradient id="SVGID_22_" gradientUnits="userSpaceOnUse" x1="208.542" y1="531.452" x2="208.542" y2="476.676">
      <stop offset=".1"/>
      <stop offset=".9" stop-color="#666"/>
    </linearGradient>
    <path d="M266.2 526.7h-85c-18.5 0-27.1-7.1-27.1-22.5s8.6-22.6 27.1-22.6l51.3-.1-4.7-4.8-46.5.1c-21.1 0-31.8 9.3-31.8 27.4 0 18.1 10.7 27.3 31.8 27.3h86.4l-1.5-4.8z" fill="url(#SVGID_22_)"/>
    <path class="st0" d="M232.5 475.3c0-12.2-6.3-13.1-15.9-13.1l-55.1.2-4.7 4.8 59.8-.2c10 0 11.2.9 11.2 8.4v1.4l4.7 4.8v-6.3z"/>
    <linearGradient id="SVGID_23_" gradientUnits="userSpaceOnUse" x1="194.655" y1="531.333" x2="194.655" y2="444.699">
      <stop offset=".15" stop-color="#1a1a1a"/>
      <stop offset=".45" stop-color="#666"/>
      <stop offset=".75" stop-color="#b3b3b3"/>
      <stop offset="1" stop-color="#666"/>
    </linearGradient>
    <path d="M232.5 475.3c0-12.2-6.3-13.1-15.9-13.1l-55.1.2-4.7 4.8 59.8-.2c10 0 11.2.9 11.2 8.4v1.4l4.7 4.8v-6.3z" fill="url(#SVGID_23_)"/>
    <linearGradient id="SVGID_24_" gradientUnits="userSpaceOnUse" x1="194.655" y1="481.444" x2="194.655" y2="462.145">
      <stop offset=".105" stop-color="#262626"/>
      <stop offset=".9" stop-color="#1a1a1a"/>
    </linearGradient>
    <path d="M232.5 475.3c0-12.2-6.3-13.1-15.9-13.1l-55.1.2-4.7 4.8 59.8-.2c10 0 11.2.9 11.2 8.4v1.4l4.7 4.8v-6.3z" fill="url(#SVGID_24_)"/>
    <path class="st0" d="M227.8 511.1l4.7 4.7v-24.2l-4.7 4.8z"/>
    <linearGradient id="SVGID_25_" gradientUnits="userSpaceOnUse" x1="230.163" y1="531.448" x2="230.163" y2="444.614">
      <stop offset=".15" stop-color="#1a1a1a"/>
      <stop offset=".45" stop-color="#666"/>
      <stop offset=".75" stop-color="#b3b3b3"/>
      <stop offset="1" stop-color="#666"/>
    </linearGradient>
    <path fill="url(#SVGID_25_)" d="M227.8 511.1l4.7 4.7v-24.2l-4.7 4.8z"/>
    <linearGradient id="SVGID_26_" gradientUnits="userSpaceOnUse" x1="230.163" y1="515.84" x2="230.163" y2="491.604">
      <stop offset=".1" stop-color="#4d4d4d"/>
      <stop offset=".9"/>
    </linearGradient>
    <path fill="url(#SVGID_26_)" d="M227.8 511.1l4.7 4.7v-24.2l-4.7 4.8z"/>
    <path class="st0" d="M168.4 503.8c0 7.6 4.8 12.1 12.9 12.1h51.3l-4.7-4.8h-46.5c-5.4 0-8.2-2.5-8.2-7.3 0-4.9 2.8-7.3 8.2-7.3l46.5-.1 4.7-4.8-51.3.1c-8.1 0-12.9 4.5-12.9 12.1z"/>
    <linearGradient id="SVGID_27_" gradientUnits="userSpaceOnUse" x1="200.447" y1="531.505" x2="200.447" y2="444.547">
      <stop offset=".15" stop-color="#1a1a1a"/>
      <stop offset=".45" stop-color="#666"/>
      <stop offset=".75" stop-color="#b3b3b3"/>
      <stop offset="1" stop-color="#666"/>
    </linearGradient>
    <path d="M168.4 503.8c0 7.6 4.8 12.1 12.9 12.1h51.3l-4.7-4.8h-46.5c-5.4 0-8.2-2.5-8.2-7.3 0-4.9 2.8-7.3 8.2-7.3l46.5-.1 4.7-4.8-51.3.1c-8.1 0-12.9 4.5-12.9 12.1z" fill="url(#SVGID_27_)"/>
    <linearGradient id="SVGID_28_" gradientUnits="userSpaceOnUse" x1="200.447" y1="515.875" x2="200.447" y2="491.604">
      <stop offset=".1" stop-color="#d9d9d9"/>
      <stop offset=".177" stop-color="#a6a6a6"/>
      <stop offset=".269" stop-color="#6f6f6f"/>
      <stop offset=".348" stop-color="#484848"/>
      <stop offset=".411" stop-color="#2f2f2f"/>
      <stop offset=".45" stop-color="#262626"/>
      <stop offset=".9"/>
    </linearGradient>
    <path d="M168.4 503.8c0 7.6 4.8 12.1 12.9 12.1h51.3l-4.7-4.8h-46.5c-5.4 0-8.2-2.5-8.2-7.3 0-4.9 2.8-7.3 8.2-7.3l46.5-.1 4.7-4.8-51.3.1c-8.1 0-12.9 4.5-12.9 12.1z" fill="url(#SVGID_28_)"/>
    <path class="st0" d="M421.4 463.5l-33.7.1 4.7 4.8 28.9-.1c23.8-.1 28.1 3 28.1 20.3s-4.3 20.4-28.1 20.4h-28.9l-4.7 4.8h33.7c24.6 0 32.9-3.7 32.9-25.2 0-21.6-8.2-25.2-32.9-25.1z"/>
    <linearGradient id="SVGID_29_" gradientUnits="userSpaceOnUse" x1="421.034" y1="531.47" x2="421.034" y2="443.946">
      <stop offset=".15" stop-color="#1a1a1a"/>
      <stop offset=".45" stop-color="#666"/>
      <stop offset=".75" stop-color="#b3b3b3"/>
      <stop offset="1" stop-color="#666"/>
    </linearGradient>
    <path d="M421.4 463.5l-33.7.1 4.7 4.8 28.9-.1c23.8-.1 28.1 3 28.1 20.3s-4.3 20.4-28.1 20.4h-28.9l-4.7 4.8h33.7c24.6 0 32.9-3.7 32.9-25.2 0-21.6-8.2-25.2-32.9-25.1z" fill="url(#SVGID_29_)"/>
    <linearGradient id="SVGID_30_" gradientUnits="userSpaceOnUse" x1="421.034" y1="513.83" x2="421.034" y2="463.48">
      <stop offset=".1" stop-color="#d9d9d9"/>
      <stop offset=".177" stop-color="#a6a6a6"/>
      <stop offset=".269" stop-color="#6f6f6f"/>
      <stop offset=".348" stop-color="#484848"/>
      <stop offset=".411" stop-color="#2f2f2f"/>
      <stop offset=".45" stop-color="#262626"/>
      <stop offset=".905" stop-color="#1a1a1a"/>
    </linearGradient>
    <path d="M421.4 463.5l-33.7.1 4.7 4.8 28.9-.1c23.8-.1 28.1 3 28.1 20.3s-4.3 20.4-28.1 20.4h-28.9l-4.7 4.8h33.7c24.6 0 32.9-3.7 32.9-25.2 0-21.6-8.2-25.2-32.9-25.1z" fill="url(#SVGID_30_)"/>
    <path class="st0" d="M392.5 468.4l-4.7-4.8v50.2l4.7-4.8z"/>
    <linearGradient id="SVGID_31_" gradientUnits="userSpaceOnUse" x1="390.143" y1="531.437" x2="390.143" y2="444.076">
      <stop offset=".15" stop-color="#1a1a1a"/>
      <stop offset=".45" stop-color="#666"/>
      <stop offset=".75" stop-color="#b3b3b3"/>
      <stop offset="1" stop-color="#666"/>
    </linearGradient>
    <path fill="url(#SVGID_31_)" d="M392.5 468.4l-4.7-4.8v50.2l4.7-4.8z"/>
    <linearGradient id="SVGID_32_" gradientUnits="userSpaceOnUse" x1="390.143" y1="513.83" x2="390.143" y2="463.574">
      <stop offset=".1" stop-color="#4d4d4d"/>
      <stop offset=".9"/>
    </linearGradient>
    <path fill="url(#SVGID_32_)" d="M392.5 468.4l-4.7-4.8v50.2l4.7-4.8z"/>
    <path class="st0" d="M367 450.8l-12.3.1z"/>
    <linearGradient id="SVGID_33_" gradientUnits="userSpaceOnUse" x1="360.806" y1="612.172" x2="360.806" y2="289.589">
      <stop offset=".15" stop-color="#1a1a1a"/>
      <stop offset=".45" stop-color="#666"/>
      <stop offset=".75" stop-color="#b3b3b3"/>
      <stop offset="1" stop-color="#666"/>
    </linearGradient>
    <path fill="url(#SVGID_33_)" d="M367 450.8l-12.3.1z"/>
    <path class="st0" d="M319.1 451l15.3-4.9-70.1.3 4.8 4.8z"/>
    <linearGradient id="SVGID_34_" gradientUnits="userSpaceOnUse" x1="299.375" y1="535.227" x2="299.375" y2="444.175">
      <stop offset=".15" stop-color="#1a1a1a"/>
      <stop offset=".45" stop-color="#666"/>
      <stop offset=".75" stop-color="#b3b3b3"/>
      <stop offset="1" stop-color="#666"/>
    </linearGradient>
    <path fill="url(#SVGID_34_)" d="M319.1 451l15.3-4.9-70.1.3 4.8 4.8z"/>
    <path class="st0" d="M268.4 451.8l-4.7-4.7v21.6l4.7-4.8z"/>
    <linearGradient id="SVGID_35_" gradientUnits="userSpaceOnUse" x1="266.029" y1="531.446" x2="266.029" y2="444.509">
      <stop offset=".15" stop-color="#1a1a1a"/>
      <stop offset=".45" stop-color="#666"/>
      <stop offset=".75" stop-color="#b3b3b3"/>
      <stop offset="1" stop-color="#666"/>
    </linearGradient>
    <path fill="url(#SVGID_35_)" d="M268.4 451.8l-4.7-4.7v21.6l4.7-4.8z"/>
    <path class="st0" d="M352 513.9h-32z"/>
    <linearGradient id="SVGID_36_" gradientUnits="userSpaceOnUse" x1="335.964" y1="675.818" x2="335.964" y2="497.756">
      <stop offset=".15" stop-color="#1a1a1a"/>
      <stop offset=".45" stop-color="#666"/>
      <stop offset=".75" stop-color="#b3b3b3"/>
      <stop offset="1" stop-color="#666"/>
    </linearGradient>
    <path fill="url(#SVGID_36_)" d="M352 513.9h-32z"/>
    <path class="st9" d="M334.4 446.1l-15.3 4.9-18.4 12.8-32.3.1-4.7 4.8 38.5-.1z"/>
    <path class="st0" d="M301.1 526.6l18-12.4-1.5-4.8-31.8 22z"/>
    <linearGradient id="SVGID_37_" gradientUnits="userSpaceOnUse" x1="302.454" y1="531.442" x2="302.454" y2="444.309">
      <stop offset=".15" stop-color="#1a1a1a"/>
      <stop offset=".45" stop-color="#666"/>
      <stop offset=".75" stop-color="#b3b3b3"/>
      <stop offset="1" stop-color="#666"/>
    </linearGradient>
    <path fill="url(#SVGID_37_)" d="M301.1 526.6l18-12.4-1.5-4.8-31.8 22z"/>
    <linearGradient id="SVGID_38_" gradientUnits="userSpaceOnUse" x1="302.454" y1="531.442" x2="302.454" y2="509.086">
      <stop offset=".226" stop-color="#999"/>
      <stop offset=".775" stop-color="#c5c5c5"/>
      <stop offset="1" stop-color="#d9d9d9"/>
    </linearGradient>
    <path fill="url(#SVGID_38_)" d="M301.1 526.6l18-12.4-1.5-4.8-31.8 22z"/>
    <path class="st0" d="M318.5 509.1l1.5 4.8h32l4.7-4.8H318z"/>
    <linearGradient id="SVGID_39_" gradientUnits="userSpaceOnUse" x1="337.357" y1="531.549" x2="337.357" y2="443.873">
      <stop offset=".15" stop-color="#1a1a1a"/>
      <stop offset=".45" stop-color="#666"/>
      <stop offset=".75" stop-color="#b3b3b3"/>
      <stop offset="1" stop-color="#666"/>
    </linearGradient>
    <path fill="url(#SVGID_39_)" d="M318.5 509.1l1.5 4.8h32l4.7-4.8H318z"/>
    <linearGradient id="SVGID_40_" gradientUnits="userSpaceOnUse" x1="337.357" y1="531.547" x2="337.357" y2="509.051">
      <stop offset=".226" stop-color="#999"/>
      <stop offset=".775" stop-color="#c5c5c5"/>
      <stop offset="1" stop-color="#d9d9d9"/>
    </linearGradient>
    <path fill="url(#SVGID_40_)" d="M318.5 509.1l1.5 4.8h32l4.7-4.8H318z"/>
    <path class="st0" d="M352 526.6h-50.9l-15.3 4.8h70.9v-22.3l-4.7 4.8z"/>
    <linearGradient id="SVGID_41_" gradientUnits="userSpaceOnUse" x1="321.273" y1="531.442" x2="321.273" y2="444.163">
      <stop offset=".15" stop-color="#1a1a1a"/>
      <stop offset=".45" stop-color="#666"/>
      <stop offset=".75" stop-color="#b3b3b3"/>
      <stop offset="1" stop-color="#666"/>
    </linearGradient>
    <path fill="url(#SVGID_41_)" d="M352 526.6h-50.9l-15.3 4.8h70.9v-22.3l-4.7 4.8z"/>
    <linearGradient id="SVGID_42_" gradientUnits="userSpaceOnUse" x1="321.273" y1="531.442" x2="321.273" y2="509.051">
      <stop offset=".1"/>
      <stop offset=".9" stop-color="#666"/>
    </linearGradient>
    <path fill="url(#SVGID_42_)" d="M352 526.6h-50.9l-15.3 4.8h70.9v-22.3l-4.7 4.8z"/>
    <linearGradient id="SVGID_43_" gradientUnits="userSpaceOnUse" x1="300.296" y1="536.694" x2="300.296" y2="444.37">
      <stop offset=".15" stop-color="#1a1a1a"/>
      <stop offset=".45" stop-color="#666"/>
      <stop offset=".75" stop-color="#b3b3b3"/>
      <stop offset="1" stop-color="#666"/>
    </linearGradient>
    <path fill="url(#SVGID_43_)" d="M353.7 451.2l-1.4-4.8-100.7 70.1-4.8 9.1z"/>
    <linearGradient id="SVGID_44_" gradientUnits="userSpaceOnUse" x1="300.296" y1="530.436" x2="300.296" y2="446.371">
      <stop offset=".226" stop-color="#b3b3b3"/>
      <stop offset=".904" stop-color="#dfdfdf"/>
      <stop offset="1" stop-color="#e6e6e6"/>
    </linearGradient>
    <path fill="url(#SVGID_44_)" d="M353.7 451.2l-1.4-4.8-100.7 70.1-4.8 9.1z"/>
    <linearGradient id="SVGID_45_" gradientUnits="userSpaceOnUse" x1="319.882" y1="531.443" x2="319.882" y2="447.036">
      <stop offset=".1"/>
      <stop offset=".5" stop-color="#666"/>
      <stop offset=".9" stop-color="#1a1a1a"/>
    </linearGradient>
    <path fill="url(#SVGID_45_)" d="M266.2 526.7l1.5 4.7 101.1-70.3 4.8-9.2z"/>
    <linearGradient id="SVGID_46_" gradientUnits="userSpaceOnUse" x1="413.266" y1="531.438" x2="413.266" y2="445.84">
      <stop offset=".1"/>
      <stop offset=".9" stop-color="#666"/>
    </linearGradient>
    <path d="M424.3 445.8l-71.1.2 1.5 4.8 69.6-.2c36.4-.1 44.3 6.6 44.3 37.9 0 31.3-7.9 38.1-44.3 38.1h-50.7l-4.7 4.8h55.4c39 0 49.1-8.8 49.1-42.9s-10.1-42.8-49.1-42.7z" fill="url(#SVGID_46_)"/>
    <g id="_white">
      <path class="st17" d="M268.4 463.9l32.3-.1 18.4-12.8-50.1.2-4.7-4.8h-.7v.7l4.7 4.8v12zM320 513.9l-1.5-4.8h-.5l-.4.3 1.5 4.8-18 12.5H352v-12.8h-32zM104.9 451.7l-97.6.3-4.7-4.7h-.7v.7l4.7 4.7v74.1h14.8v-61.7l43.4-.1v61.8h14.9v-61.9l24.6-.1c14 0 18.9 4.8 18.9 18.3v43.6h15v-44.1c0-24.6-6.9-31-33.3-30.9zM545.5 450.3l-54.4.2-4.7-4.8h-.7v.7l4.7 4.8v10.3l55.1-.2c9.6 0 15.9.9 16 13.3v6.3l-51.2.1c-18.5 0-27.1 7.3-27 22.9 0 15.6 8.6 22.8 27.1 22.8H576l-.1-50.7c-.2-21.3-5.5-25.8-30.4-25.7zm16.1 65.3h-51.3c-8.1 0-12.9-4.6-12.9-12.2 0-7.7 4.8-12.3 12.9-12.3l51.2-.1.1 24.6z"/>
      <path class="st17" d="M424.3 450.7l-69.6.2-1.5-4.8h-.5l-.4.3 1.5 4.8-106.9 74.4v-48.9c0-20.9-5.4-25.4-30.3-25.3l-54.4.2-4.7-4.7h-.7v.7l4.7 4.7v10.1l55.1-.2c9.6 0 15.9.9 15.9 13.1v6.2l-51.3.1c-18.5 0-27.1 7.2-27.1 22.6 0 15.4 8.6 22.5 27.1 22.5h85L373.6 452v74.7h50.7c36.4 0 44.3-6.8 44.3-38.1s-7.9-38.1-44.3-37.9zm-243 65.2c-8.1 0-12.9-4.5-12.9-12.1s4.8-12.1 12.9-12.1l51.3-.1v24.2l-51.3.1zm240.1-2.1h-33.6v-50.3l33.6-.1c24.6-.1 32.9 3.5 32.9 25.1 0 21.8-8.4 25.3-32.9 25.3z"/>
    </g>
    <g id="_top">
      <linearGradient id="SVGID_47_" gradientUnits="userSpaceOnUse" x1="421.075" y1="525.672" x2="421.075" y2="449.847">
        <stop offset="0" stop-color="#b5b5b5"/>
        <stop offset=".114" stop-color="#a2a2a2"/>
        <stop offset=".2" stop-color="#999"/>
        <stop offset=".314" stop-color="#909090"/>
        <stop offset=".39" stop-color="#878787"/>
        <stop offset=".4" stop-color="#b3b3b3"/>
        <stop offset=".527" stop-color="#cfcfcf"/>
        <stop offset=".7" stop-color="#f2f2f2"/>
        <stop offset=".821" stop-color="#e9e9e9"/>
        <stop offset="1" stop-color="#d4d4d4"/>
      </linearGradient>
      <path d="M467.6 488.6c0-30.7-7.5-37.1-43.4-36.9l-49.8.2v73.9h49.8c35.9-.2 43.4-6.6 43.4-37.2zm-80.8 26.2v-52.2l34.6-.1c24.9-.1 33.8 3.9 33.8 26.1 0 22.2-8.9 26.2-33.8 26.2h-34.6z" fill="url(#SVGID_47_)"/>
      <linearGradient id="SVGID_48_" gradientUnits="userSpaceOnUse" x1="200.488" y1="525.729" x2="200.488" y2="450.522">
        <stop offset="0" stop-color="#b5b5b5"/>
        <stop offset=".114" stop-color="#a2a2a2"/>
        <stop offset=".2" stop-color="#999"/>
        <stop offset=".314" stop-color="#909090"/>
        <stop offset=".39" stop-color="#878787"/>
        <stop offset=".4" stop-color="#b3b3b3"/>
        <stop offset=".527" stop-color="#cfcfcf"/>
        <stop offset=".7" stop-color="#f2f2f2"/>
        <stop offset=".821" stop-color="#e9e9e9"/>
        <stop offset="1" stop-color="#d4d4d4"/>
      </linearGradient>
      <path d="M233.5 475.3v7.1l-52.2.1c-18 0-26.2 6.8-26.2 21.6s8.2 21.6 26.2 21.6h64.6v-49.1c0-20.4-4.9-24.4-29.3-24.4l-54.2.2v8.9l54.2-.2c9.9.1 16.9 1.1 16.9 14.2zm0 41.5h-52.2c-8.5 0-13.8-5-13.8-13s5.3-13 13.8-13.1l52.2-.1v26.2z" fill="url(#SVGID_48_)"/>
      <linearGradient id="SVGID_49_" gradientUnits="userSpaceOnUse" x1="292.696" y1="526.557" x2="292.696" y2="450.179">
        <stop offset="0" stop-color="#b5b5b5"/>
        <stop offset=".114" stop-color="#a2a2a2"/>
        <stop offset=".2" stop-color="#999"/>
        <stop offset=".314" stop-color="#909090"/>
        <stop offset=".39" stop-color="#878787"/>
        <stop offset=".4" stop-color="#b3b3b3"/>
        <stop offset=".527" stop-color="#cfcfcf"/>
        <stop offset=".7" stop-color="#f2f2f2"/>
        <stop offset=".821" stop-color="#e9e9e9"/>
        <stop offset="1" stop-color="#d4d4d4"/>
      </linearGradient>
      <path fill="url(#SVGID_49_)" d="M316.1 452l-46.8.1v10.8h31.1z"/>
      <linearGradient id="SVGID_50_" gradientUnits="userSpaceOnUse" x1="327.577" y1="525.69" x2="327.577" y2="450.014">
        <stop offset="0" stop-color="#b5b5b5"/>
        <stop offset=".114" stop-color="#a2a2a2"/>
        <stop offset=".2" stop-color="#999"/>
        <stop offset=".314" stop-color="#909090"/>
        <stop offset=".39" stop-color="#878787"/>
        <stop offset=".4" stop-color="#b3b3b3"/>
        <stop offset=".527" stop-color="#cfcfcf"/>
        <stop offset=".7" stop-color="#f2f2f2"/>
        <stop offset=".821" stop-color="#e9e9e9"/>
        <stop offset="1" stop-color="#d4d4d4"/>
      </linearGradient>
      <path fill="url(#SVGID_50_)" d="M351 525.7v-10.9h-31.2l-15.7 10.9z"/>
      <linearGradient id="SVGID_51_" gradientUnits="userSpaceOnUse" x1="72.38" y1="525.781" x2="72.38" y2="451.225">
        <stop offset="0" stop-color="#b5b5b5"/>
        <stop offset=".114" stop-color="#a2a2a2"/>
        <stop offset=".2" stop-color="#999"/>
        <stop offset=".314" stop-color="#909090"/>
        <stop offset=".39" stop-color="#878787"/>
        <stop offset=".4" stop-color="#b3b3b3"/>
        <stop offset=".527" stop-color="#cfcfcf"/>
        <stop offset=".7" stop-color="#f2f2f2"/>
        <stop offset=".821" stop-color="#e9e9e9"/>
        <stop offset="1" stop-color="#d4d4d4"/>
      </linearGradient>
      <path d="M104.9 452.6l-97.4.3v72.8h12.9V464l45.2-.1v61.9h13v-61.9l25.6-.1c14.5 0 19.9 5.2 19.9 19.3v42.7h13.1v-43.1c0-24.2-6.3-30.1-32.3-30.1z" fill="url(#SVGID_51_)"/>
      <linearGradient id="SVGID_52_" gradientUnits="userSpaceOnUse" x1="529.55" y1="525.784" x2="529.55" y2="451.228">
        <stop offset="0" stop-color="#b5b5b5"/>
        <stop offset=".114" stop-color="#a2a2a2"/>
        <stop offset=".2" stop-color="#999"/>
        <stop offset=".314" stop-color="#909090"/>
        <stop offset=".39" stop-color="#878787"/>
        <stop offset=".4" stop-color="#b3b3b3"/>
        <stop offset=".527" stop-color="#cfcfcf"/>
        <stop offset=".7" stop-color="#f2f2f2"/>
        <stop offset=".821" stop-color="#e9e9e9"/>
        <stop offset="1" stop-color="#d4d4d4"/>
      </linearGradient>
      <path d="M545.5 451.2l-54.1.2v9l54.1-.2c9.9 0 16.9 1 16.9 14.3v7.2l-52.2.1c-17.9 0-26.1 6.9-26.1 21.9 0 15 8.3 21.9 26.2 21.9h64.6l-.1-49.7c0-20.6-4.9-24.7-29.3-24.7zm-35.2 65.4c-8.5 0-13.8-5.1-13.9-13.2 0-8.1 5.3-13.2 13.8-13.2l52.2-.1.1 26.5h-52.2z" fill="url(#SVGID_52_)"/>
      <linearGradient id="SVGID_53_" gradientUnits="userSpaceOnUse" x1="310.169" y1="525.729" x2="310.169" y2="450.028">
        <stop offset="0" stop-color="#b5b5b5"/>
        <stop offset=".114" stop-color="#a2a2a2"/>
        <stop offset=".2" stop-color="#999"/>
        <stop offset=".314" stop-color="#909090"/>
        <stop offset=".39" stop-color="#878787"/>
        <stop offset=".4" stop-color="#b3b3b3"/>
        <stop offset=".527" stop-color="#cfcfcf"/>
        <stop offset=".7" stop-color="#f2f2f2"/>
        <stop offset=".821" stop-color="#e9e9e9"/>
        <stop offset="1" stop-color="#d4d4d4"/>
      </linearGradient>
      <path fill="url(#SVGID_53_)" d="M372.1 451.8h-17.6l-106.3 73.9h17.7z"/>
    </g>
    <linearGradient id="SVGID_54_" gradientUnits="userSpaceOnUse" x1="533.511" y1="531.465" x2="533.511" y2="445.354">
      <stop offset=".1"/>
      <stop offset=".9" stop-color="#666"/>
    </linearGradient>
    <path d="M544.9 445.4l-58.5.3 4.7 4.8 53.8-.2c25.4-.1 30.9 4.5 30.9 25.7v50.7l4.8 4.8v-55.6c0-25.6-5.9-30.7-35.7-30.5z" fill="url(#SVGID_54_)"/>
    <linearGradient id="SVGID_55_" gradientUnits="userSpaceOnUse" x1="208.542" y1="531.466" x2="208.542" y2="476.676">
      <stop offset=".1"/>
      <stop offset=".9" stop-color="#8c8c8c"/>
    </linearGradient>
    <path d="M266.2 526.7h-85c-18.5 0-27.1-7.2-27.1-22.5 0-15.4 8.6-22.6 27.1-22.6l51.3-.1-4.7-4.8-46.6.1c-21.1 0-31.8 9.3-31.8 27.4 0 18.1 10.7 27.3 31.8 27.3h86.4l-1.4-4.8z" fill="url(#SVGID_55_)"/>
    <g id="_high_light">
      <linearGradient id="SVGID_56_" gradientUnits="userSpaceOnUse" x1="109.58" y1="442.251" x2="146.444" y2="479.115">
        <stop offset=".1" stop-color="#fff" stop-opacity="0"/>
        <stop offset=".4" stop-color="#fff"/>
        <stop offset=".6" stop-color="#fff"/>
        <stop offset=".9" stop-color="#fff" stop-opacity="0"/>
      </linearGradient>
      <path d="M104.9 446.9v4.8c26.4-.1 33.3 6.3 33.3 30.9h4.8c-.1-28.8-7.6-35.8-38.1-35.7z" opacity=".5" fill="url(#SVGID_56_)"/>
      <linearGradient id="SVGID_57_" gradientUnits="userSpaceOnUse" x1="549.991" y1="440.924" x2="582.742" y2="473.674">
        <stop offset=".1" stop-color="#fff" stop-opacity="0"/>
        <stop offset=".4" stop-color="#fff"/>
        <stop offset=".6" stop-color="#fff"/>
        <stop offset=".9" stop-color="#fff" stop-opacity="0"/>
      </linearGradient>
      <path d="M545.5 445.4v4.8c24.9-.1 30.2 4.5 30.3 25.6h4.7c0-25.4-5.9-30.5-35-30.4z" opacity=".5" fill="url(#SVGID_57_)"/>
      <linearGradient id="SVGID_58_" gradientUnits="userSpaceOnUse" x1="477.498" y1="502.776" x2="507.237" y2="473.036">
        <stop offset=".1" stop-color="#fff" stop-opacity="0"/>
        <stop offset=".4" stop-color="#fff"/>
        <stop offset=".6" stop-color="#fff"/>
        <stop offset=".9" stop-color="#fff" stop-opacity="0"/>
      </linearGradient>
      <path d="M510.2 476c-21.1 0-31.8 9.4-31.8 27.7h4.7c0-15.6 8.5-22.9 27-22.9l.1-4.8z" opacity=".5" fill="url(#SVGID_58_)"/>
      <linearGradient id="SVGID_59_" gradientUnits="userSpaceOnUse" x1="221.132" y1="442.011" x2="253.671" y2="474.55">
        <stop offset=".1" stop-color="#fff" stop-opacity="0"/>
        <stop offset=".4" stop-color="#fff"/>
        <stop offset=".6" stop-color="#fff"/>
        <stop offset=".9" stop-color="#fff" stop-opacity="0"/>
      </linearGradient>
      <path d="M246.8 476.6h4.8c0-25.2-5.9-30.2-35-30.1v4.8c24.9-.1 30.2 4.4 30.2 25.3z" opacity=".5" fill="url(#SVGID_59_)"/>
      <linearGradient id="SVGID_60_" gradientUnits="userSpaceOnUse" x1="148.592" y1="503.325" x2="178.194" y2="473.723">
        <stop offset=".1" stop-color="#fff" stop-opacity="0"/>
        <stop offset=".4" stop-color="#fff"/>
        <stop offset=".6" stop-color="#fff"/>
        <stop offset=".9" stop-color="#fff" stop-opacity="0"/>
      </linearGradient>
      <path d="M181.3 481.5v-4.8c-21.1 0-31.8 9.3-31.8 27.4h4.7c-.1-15.3 8.5-22.5 27.1-22.6z" opacity=".5" fill="url(#SVGID_60_)"/>
      <linearGradient id="SVGID_61_" gradientUnits="userSpaceOnUse" x1="430.756" y1="439.364" x2="476.647" y2="485.254">
        <stop offset=".1" stop-color="#fff" stop-opacity="0"/>
        <stop offset=".4" stop-color="#fff"/>
        <stop offset=".6" stop-color="#fff"/>
        <stop offset=".9" stop-color="#fff" stop-opacity="0"/>
      </linearGradient>
      <path d="M468.6 488.6h4.8c0-34.1-10.1-42.8-49.1-42.7v4.8c36.4-.2 44.3 6.6 44.3 37.9z" opacity=".5" fill="url(#SVGID_61_)"/>
    </g>
  </g>
  <g id="symbol">
    <path d="M489.4 61.2C450.4 19.3 387.4.1 291.3 0 195.2.1 132.2 19.3 93.2 61.2 64.2 92.3 46 135.3 46 193.7c0 32.3 8 114.5 72.9 156.9 38.9 25.4 89 41.8 172.4 41.9 83.4-.1 133.6-16.5 172.4-41.9 64.9-42.4 72.9-124.6 72.9-156.9 0-58.2-18.4-101.5-47.2-132.5zM291.3 358.7c-31.6 0-57.2-2.6-78.3-7.9-20.7-5.2-37.9-13.1-52.6-24.3-11-8.4-20.6-18.9-28.5-31.4-6.7-10.7-12.3-22.8-16.5-36.2-8.6-27.1-9.6-51.7-9.6-61 0-13.7.9-26.8 2.8-38.8 22.6 12.2 44 18.3 62.9 23.7 1.5.4 2.9.8 4.4 1.3 26.4 7.6 47.3 17.5 64.1 30.4 9.7 7.5 18.2 16.2 25.2 25.8 7.5 10.4 13.6 22.3 17.9 35.2 2 5.9 4.1 9.6 8.3 9.6 4.2 0 6.3-3.7 8.3-9.6 4.4-13 10.4-24.8 17.9-35.2 7-9.6 15.4-18.3 25.2-25.8 16.8-12.9 37.7-22.9 64.1-30.4 1.5-.4 2.9-.8 4.4-1.3 18.9-5.4 40.4-11.5 62.9-23.7 1.8 12 2.8 25.1 2.8 38.8 0 9.4-.9 34-9.5 61-4.2 13.3-9.8 25.5-16.5 36.2-7.9 12.5-17.5 23-28.5 31.4-14.8 11.2-32 19.1-52.6 24.3-21.4 5.3-47.1 7.9-78.6 7.9zm0-144.5c-.8 0-2.2-.9-4.5-5.3-10.2-18.8-23.8-35-40.4-48.1-12.6-9.9-27-18.2-42.9-24.5-2.3-.9-4.7-1.9-7.1-2.8-20.7-8.2-42.1-16.6-62.1-28.1-2.2-1.3-4.4-2.6-6.5-3.9 4-7 8.6-13.6 13.7-19.7 7.4-8.8 16-16.6 25.6-23.1 9.7-6.6 20.9-12.1 33.1-16.5 24.9-8.9 54.7-13.2 91.1-13.3 36.4 0 66.2 4.4 91.1 13.3 12.2 4.4 23.3 9.9 33.1 16.5 9.6 6.5 18.2 14.3 25.6 23.1 5.1 6.1 9.7 12.7 13.7 19.7-2.1 1.3-4.3 2.6-6.5 3.9-19.9 11.5-41.4 20-62.1 28.1-2.4.9-4.7 1.9-7.1 2.8-15.9 6.3-30.3 14.5-42.9 24.5-16.6 13.1-30.2 29.3-40.4 48.1-2.3 4.4-3.8 5.3-4.5 5.3z"/>
    <path class="st17" d="M522.5 117.7c-7.8-21-19.3-39.7-34.1-55.6-19.5-20.9-44.7-35.9-77.1-45.9-32.3-9.9-71.6-14.8-120-14.8-48.4 0-87.7 4.9-120 14.9-32.4 10-57.6 25-77.1 45.9-14.9 16-26.4 34.7-34.2 55.6-8.4 22.5-12.6 48.1-12.6 76 0 25.5 5.2 111.9 72.3 155.7 20.9 13.7 43.5 23.6 69.1 30.3 29.1 7.6 62.7 11.4 102.5 11.4 39.9-.1 73.4-3.8 102.5-11.4 25.6-6.7 48.2-16.6 69.1-30.3 67.1-43.8 72.3-130.3 72.3-155.7 0-27.9-4.3-53.5-12.7-76.1zm-396.4-16.3c4.1-7.3 8.9-14.2 14.2-20.6 30.4-36.3 78.4-53.3 151-53.4 72.5.1 120.5 17 150.9 53.4 5.4 6.4 10.1 13.2 14.2 20.6.1.2.2.3.3.5-.2.1-.3.2-.5.3-3.8 2.4-7.7 4.7-11.8 7-18.7 10.3-38.6 18.1-57.8 25.7-2.4.9-4.7 1.9-7.1 2.8-36.8 14.6-64.6 38.8-82.5 71.9-2.3 4.2-4.1 6.1-5.8 6.1-1.8 0-3.5-1.9-5.8-6.1-17.9-33.1-45.7-57.3-82.5-71.9-2.3-.9-4.6-1.8-7-2.8h-.1c-19.2-7.6-39.1-15.4-57.8-25.7-4.1-2.3-8-4.6-11.8-7-.2-.1-.3-.2-.5-.3.2-.1.3-.3.4-.5zm297 226.3c-29.9 22.7-69.4 32.4-131.8 32.5-62.5-.1-102-9.8-131.8-32.5-52.5-39.8-55.1-115-55.1-129.7 0-14.5 1-28 3-40.5 0-.2.1-.4.1-.6.2.1.4.2.5.3 23 12.6 44.4 18.7 64 24.3 1.5.4 3 .8 4.4 1.3 26.5 7.6 47.6 17.6 64.5 30.6 9.8 7.6 18.4 16.4 25.4 26.1 7.6 10.5 13.7 22.5 18.1 35.6 2.1 6.3 4 8.6 6.9 8.6 2.9 0 4.8-2.3 6.9-8.6 4.4-13.1 10.5-25.1 18.1-35.6 7-9.7 15.6-18.5 25.4-26.1 16.9-13 38-23 64.5-30.6 1.5-.4 2.9-.8 4.4-1.3 19.7-5.6 41-11.7 64-24.3.2-.1.4-.2.5-.3 0 .2.1.4.1.6 2 12.6 3 26.1 3 40.5.1 14.7-2.6 90-55.1 129.7z"/>
    <linearGradient id="in_sf_base_3_" gradientUnits="userSpaceOnUse" x1="243.935" y1="10.325" x2="342.002" y2="376.317">
      <stop offset=".212"/>
      <stop offset=".359" stop-color="#0b0b0b"/>
      <stop offset=".594" stop-color="#262626"/>
      <stop offset=".85" stop-color="#b2b2b2"/>
      <stop offset="1" stop-color="#fff"/>
    </linearGradient>
    <path id="in_sf_base_2_" d="M236.1 356.3c-51.3-7.2-130.7-34.3-130.7-164.6 0-77.8 25.4-163.6 186.8-163.6C431.3 28 478 99.7 478 191.4c0 33.4-5.7 60-14.3 81.3-23.4 57.7-72.2 76-115.3 83.1-28.6 4.7-78.8 5.1-112.3.5zm275.5-163.8c0-99.3-46.8-181.6-218.8-181.6-180.8 0-218.9 99.7-218.9 181.8 0 137.5 92.3 170.9 159.4 178.8 34 4 83.2 3.8 114.7.1 66.6-7.8 163.6-40.9 163.6-179.1z" fill-rule="evenodd" clip-rule="evenodd" fill="url(#in_sf_base_3_)"/>
    <linearGradient id="in_sf_base_4_" gradientUnits="userSpaceOnUse" x1="243.925" y1="10.327" x2="342.341" y2="377.619">
      <stop offset="0"/>
      <stop offset=".564" stop-color="#1a1a1a"/>
      <stop offset=".618" stop-color="#202020"/>
      <stop offset=".709" stop-color="#262626"/>
      <stop offset=".836" stop-color="#fff"/>
      <stop offset=".891" stop-color="#fff"/>
      <stop offset="1" stop-color="gray"/>
    </linearGradient>
    <path id="in_sf_base_1_" d="M236.1 356.3C184.8 349.1 105 322 105.4 191.7 105.7 111.1 139.5 28 292.2 28 431.6 28 476 100 478 191.4c.7 32.9-5.5 59.3-14 80.4-23.8 59.4-70.3 76.5-115.6 83.9-28.6 4.8-78.8 5.2-112.3.6zm275.5-163.8c0-99.3-46.8-181.6-218.8-181.6-180.8 0-218.9 99.7-218.9 181.8 0 137.5 92.3 171.9 159.4 179.8 34 4 83.1 4.3 114.6.6 66.5-7.7 163.7-42.4 163.7-180.6z" fill-rule="evenodd" clip-rule="evenodd" fill="url(#in_sf_base_4_)"/>
    <linearGradient id="SVGID_62_" gradientUnits="userSpaceOnUse" x1="-1703.948" y1=".006" x2="-1608.668" y2="355.596" gradientTransform="matrix(-1 0 0 1 -1462.596 0)">
      <stop offset="0" stop-opacity="0"/>
      <stop offset=".606" stop-color="#1a1a1a"/>
      <stop offset=".664" stop-color="#1d1d1d"/>
      <stop offset=".709" stop-color="#262626"/>
      <stop offset=".867" stop-color="#eee"/>
      <stop offset="1" stop-color="#dcdcdc" stop-opacity="0"/>
    </linearGradient>
    <path d="M293 13.8v12.5c-139.9.3-188.1 74.4-188.1 168.2 0 83.7 38.4 129.2 79.4 148.2 47 21.8 101.6 18 75.9 27.8-6.3 2.4-11.5 6.3-34.1 3.7-66.5-7.8-151.6-40.6-151.6-178.8C74.5 96.2 121.2 14 293 13.8z" fill-rule="evenodd" clip-rule="evenodd" fill="url(#SVGID_62_)"/>
    <linearGradient id="out_sf_base_2_" gradientUnits="userSpaceOnUse" x1="362.926" y1="391.241" x2="219.978" y2="-1.506">
      <stop offset=".036"/>
      <stop offset=".194"/>
      <stop offset=".286" stop-color="#343434"/>
      <stop offset=".448" stop-color="#8a8a8a"/>
      <stop offset=".581" stop-color="#c9c9c9"/>
      <stop offset=".677" stop-color="#f0f0f0"/>
      <stop offset=".727" stop-color="#fff"/>
      <stop offset="1" stop-color="#4d4d4d"/>
    </linearGradient>
    <path id="out_sf_base_1_" d="M534.9 196.6c-.6 50.4-18 108.4-59.1 142.6-43.1 35.8-109.4 51.3-184.3 51.3-74.3 0-138.4-12.7-186.9-53.4-38.5-32.4-57.2-89.9-57.2-141.1 0-55.7 17.9-114.8 64.7-150.5C156.8 11.3 229.6.8 291.2.8c68.8 0 135.6 11.3 180.1 46.8 46.2 36.9 64.3 92.1 63.6 149zm-24.3-1.9c0-92.3-53.9-181.6-218.8-181.6-180.8 0-218.9 99.7-218.9 181.8 0 140.2 95.9 172.1 163.3 179.3 36.4 3.9 72.9 4.3 112.6-.1 41.9-4.7 161.8-25.1 161.8-179.4z" fill-rule="evenodd" clip-rule="evenodd" fill="url(#out_sf_base_2_)"/>
    <linearGradient id="SVGID_63_" gradientUnits="userSpaceOnUse" x1="118.333" y1="177.575" x2="171.548" y2="-8.007">
      <stop offset="0" stop-color="#fff" stop-opacity="0"/>
      <stop offset=".461" stop-color="#fff"/>
      <stop offset=".54" stop-color="#f0f0f0" stop-opacity=".854"/>
      <stop offset="1" stop-color="#9a9a9a" stop-opacity="0"/>
    </linearGradient>
    <path d="M78 149.1c8.4-24 18.9-63.6 49.7-91 34.8-30.9 95.9-41.8 113.8-43.8-7-4.1-10.7-5-21-8.3-50.3 7.4-93 21.1-123.4 53.1C65 92.8 55.7 120.3 50 158c10.5-3.9 14.7-4.8 28-8.9z" opacity=".74" fill-rule="evenodd" clip-rule="evenodd" fill="url(#SVGID_63_)"/>
    <linearGradient id="in_up_right_2_" gradientUnits="userSpaceOnUse" x1="145.766" y1="48.678" x2="438.655" y2="48.678">
      <stop offset="0"/>
      <stop offset=".003" stop-color="#020202" stop-opacity=".997"/>
      <stop offset=".074" stop-color="#272727" stop-opacity=".926"/>
      <stop offset=".147" stop-color="#464646" stop-opacity=".853"/>
      <stop offset=".223" stop-color="#5e5e5e" stop-opacity=".777"/>
      <stop offset=".304" stop-color="#6f6f6f" stop-opacity=".696"/>
      <stop offset=".393" stop-color="#797979" stop-opacity=".607"/>
      <stop offset=".503" stop-color="#7c7c7c" stop-opacity=".497"/>
      <stop offset="1"/>
    </linearGradient>
    <path id="in_up_right_1_" d="M290 21.3c58.3 0 113.8 9.9 148.6 54.7-53.3-66-233.5-67.6-292.9 0 34.9-39.7 86-54.7 144.3-54.7z" fill-rule="evenodd" clip-rule="evenodd" fill="url(#in_up_right_2_)"/>
    <linearGradient id="SVGID_64_" gradientUnits="userSpaceOnUse" x1="-1979.019" y1="285.236" x2="-1992.992" y2="323.624" gradientTransform="matrix(-1 0 0 1 -1499.93 0)">
      <stop offset=".236" stop-opacity="0"/>
      <stop offset=".442"/>
      <stop offset=".691" stop-opacity=".739"/>
      <stop offset="1" stop-opacity="0"/>
    </linearGradient>
    <path d="M517.4 280.9c3-6.8 2.8-6.3 4.1-10.5.6-1.9-.5 1.1-1.8 3.5-1.6 3.1-1.3 2.9-3.8 6.4-2.5 3.6-3.3 3.9-8 6.9-3.8 2.4-8.4 3.9-15.9 8-1.9 1.1-2.8 1.8-6.8 6.9-2.8 3.7-5.8 7.8-7.4 9.6-4.8 5.6-17 16.4-24 22.5-6.1 5.4-4.8 5.3 3.9 2.3 7.8-2.7 19.3-7.5 26.1-10.3 4.3-1.8 7.8-4.8 9.3-6.4 8.6-9.9 18.4-25.8 24.3-38.9z" fill-rule="evenodd" clip-rule="evenodd" fill="url(#SVGID_64_)"/>
    <linearGradient id="SVGID_65_" gradientUnits="userSpaceOnUse" x1="203.102" y1="-12.361" x2="84.315" y2="201.935" gradientTransform="translate(-11.166)">
      <stop offset="0" stop-color="#fff" stop-opacity="0"/>
      <stop offset=".37" stop-color="#fff"/>
      <stop offset="1" stop-color="gray" stop-opacity="0"/>
    </linearGradient>
    <path d="M73.9 194.5c0-44.4 15.7-102.3 53.6-135.9 34.8-30.9 94.2-42.4 112.2-44.5-7-4.1-10.7-5-21-8.3-50.3 7.4-93 22-123.4 54-34.9 36.6-47.6 86.3-48.5 127.5 8.9 2.6 15.5 4.5 27.1 7.2z" opacity=".9" fill-rule="evenodd" clip-rule="evenodd" fill="url(#SVGID_65_)"/>
    <linearGradient id="SVGID_66_" gradientUnits="userSpaceOnUse" x1="417.654" y1="52.268" x2="487.789" y2="52.268">
      <stop offset="0"/>
      <stop offset=".09" stop-opacity=".91"/>
      <stop offset="1" stop-opacity="0"/>
    </linearGradient>
    <path d="M417.7 35.7c10.3 1.4 47.5 9.5 60.1 17.1 12 7.3 9.9 7.5 9.9 7.5l-22.3 8.5s-15.7-17.5-47.7-33.1z" opacity=".2" fill-rule="evenodd" clip-rule="evenodd" fill="url(#SVGID_66_)"/>
    <linearGradient id="SVGID_67_" gradientUnits="userSpaceOnUse" x1="-1740.322" y1="33.668" x2="-1740.322" y2="79.058" gradientTransform="matrix(-1 0 0 1 -1614.93 0)">
      <stop offset="0"/>
      <stop offset="1" stop-opacity="0"/>
    </linearGradient>
    <path d="M163.7 35.1c-22.1 5.2-51.8 12.8-63.5 20.4C94.7 59.1 79.5 79 79.5 79l21.6-18c10.5-2.8 11.1-3.3 19.1-5.2 8.9-2.2 14-2.8 23.9-9.4 9.7-6.6 41.7-16.5 19.6-11.3z" opacity=".2" fill-rule="evenodd" clip-rule="evenodd" fill="url(#SVGID_67_)" fill-opacity=".42"/>
    <linearGradient id="SVGID_68_" gradientUnits="userSpaceOnUse" x1="446.118" y1="302.202" x2="426.326" y2="356.578" gradientTransform="translate(-299.025)">
      <stop offset=".048" stop-opacity="0"/>
      <stop offset=".261"/>
      <stop offset=".533" stop-opacity=".852"/>
      <stop offset=".6" stop-color="#040404" stop-opacity=".816"/>
      <stop offset=".666" stop-color="#101010" stop-opacity=".779"/>
      <stop offset=".733" stop-color="#242424" stop-opacity=".743"/>
      <stop offset=".739" stop-color="#262626" stop-opacity=".739"/>
      <stop offset=".741" stop-color="#252525" stop-opacity=".734"/>
      <stop offset=".77" stop-color="#141414" stop-opacity=".651"/>
      <stop offset=".807" stop-color="#090909" stop-opacity=".548"/>
      <stop offset=".858" stop-color="#020202" stop-opacity=".403"/>
      <stop offset="1" stop-opacity="0"/>
    </linearGradient>
    <path d="M64.3 274.6c1.5 3.1 2.9 7.8 8.6 10.3 4.4 2 8 3.5 12.4 5.2 7.1 2.8 12.6 12.3 17.2 18.4 4.6 6 19.1 19.4 26.3 25.4 10.8 8.8 30.8 20.8 46 27 1.1.4 42.8 17.8 38.1 21.8-1.3 1.2-39.7-9.7-41.4-10.2-32.9-10-67.6-29.9-90.7-63.1-3.1-4.5-14.6-25.4-17.2-33.9-1.4-5.4-1.1-4.9.7-.9z" fill-rule="evenodd" clip-rule="evenodd" fill="url(#SVGID_68_)"/>
    <linearGradient id="SVGID_69_" gradientUnits="userSpaceOnUse" x1="-2107.179" y1="164.147" x2="-2058.071" y2="-7.113" gradientTransform="matrix(-1 0 0 1 -1646.93 0)">
      <stop offset="0" stop-color="#fff" stop-opacity="0"/>
      <stop offset=".09" stop-color="#e3e3e3" stop-opacity=".195"/>
      <stop offset=".283" stop-color="#9c9c9c" stop-opacity=".614"/>
      <stop offset=".461" stop-color="#565656"/>
      <stop offset=".473" stop-color="#404040"/>
      <stop offset=".579" stop-color="#444" stop-opacity=".798"/>
      <stop offset=".69" stop-color="#505050" stop-opacity=".588"/>
      <stop offset=".803" stop-color="#656565" stop-opacity=".373"/>
      <stop offset=".917" stop-color="#828282" stop-opacity=".157"/>
      <stop offset=".972" stop-color="#939393" stop-opacity=".054"/>
      <stop offset="1" stop-color="#9a9a9a" stop-opacity="0"/>
    </linearGradient>
    <path d="M505.9 149.7c-8.4-23.9-18.9-63.6-49.7-91-34.8-30.8-95.9-41.7-113.9-43.8 7-4.1 10.7-5 21-8.3 50.3 7.4 93 22 123.4 54 25.6 26.8 36.8 58.2 42.5 83.8-8.7 2.5-11.7 2.5-23.3 5.3z" opacity=".9" fill-rule="evenodd" clip-rule="evenodd" fill="url(#SVGID_69_)"/>
    <linearGradient id="SVGID_70_" gradientUnits="userSpaceOnUse" x1="690.999" y1="79.613" x2="734.299" y2="79.613" gradientTransform="translate(-241.063)">
      <stop offset="0"/>
      <stop offset=".307" stop-color="#060606"/>
      <stop offset=".701" stop-color="#151515"/>
      <stop offset="1" stop-color="#262626"/>
    </linearGradient>
    <path d="M475.9 84.4l-19.5 15.1-6.5-9.8c4.7-6.5 12.2-18 13.1-19.2.9-1.2 3.2-2.9 5-3.5 1.9-.6 10.1-4.7 16.7-7.2l8.5 9.9-17.3 14.7z" fill-rule="evenodd" clip-rule="evenodd" fill="url(#SVGID_70_)"/>
    <linearGradient id="SVGID_71_" gradientUnits="userSpaceOnUse" x1="-1457.787" y1="80.177" x2="-1414.496" y2="80.177" gradientTransform="matrix(-1 0 0 1 -1324.18 0)">
      <stop offset="0"/>
      <stop offset=".307" stop-color="#060606"/>
      <stop offset=".701" stop-color="#151515"/>
      <stop offset="1" stop-color="#262626"/>
    </linearGradient>
    <path d="M107 85.6l19.5 15.2 7.1-11.3c-4.7-6.5-12.2-18-13.1-19.2-.9-1.2-3.2-2.9-5-3.5-1.9-.6-10.8-4.5-17.4-7l-7.8 9.7L107 85.6z" fill-rule="evenodd" clip-rule="evenodd" fill="url(#SVGID_71_)"/>
    <path class="st9" d="M108.1 156.4c-.1 0-.2 0-.2-.1-.1-.1-6.3-11.5-8.9-17.8-2.7-6.3-8.4-22.3-8.5-22.4-.1-.2 0-.3.2-.4.1-.1.3 0 .4.2.1.2 5.8 16.2 8.5 22.4 2.7 6.2 8.9 17.6 8.9 17.8.1.1 0 .3-.1.4-.2-.1-.2-.1-.3-.1z"/>
    <path class="st9" d="M107.2 156.4c-.1 0-.2 0-.2-.1-.1-.1-6.3-11.5-8.9-17.8-2.7-6.3-8.4-22.3-8.5-22.4-.1-.2 0-.3.2-.4.1-.1.3 0 .4.2.1.2 5.8 16.2 8.5 22.4 2.7 6.2 8.9 17.6 8.9 17.8.1.1 0 .3-.1.4-.2-.1-.2-.1-.3-.1z"/>
    <linearGradient id="SVGID_72_" gradientUnits="userSpaceOnUse" x1="69.785" y1="80.979" x2="114.677" y2="80.979" gradientTransform="translate(19.125)">
      <stop offset="0" stop-color="#b2b2b2"/>
      <stop offset=".003" stop-color="#b1b1b1"/>
      <stop offset=".256" stop-color="#676767"/>
      <stop offset=".437" stop-color="#383838"/>
      <stop offset=".527" stop-color="#262626"/>
    </linearGradient>
    <path d="M133.8 89.5s-2.8 4-4.2 6.2c-1.2 2-3.6 6.4-3.6 6.4s-11.5-7.4-20.9-15.7c-8.7-7.6-13-12.6-16.2-16.6 1.7-2.2 1.7-2.2 9-9.9 0 0-.3 1 1.2 2.7 4.7 5.5 23.4 21.3 31.2 26.4 2.1 1.4 3.5.5 3.5.5z" fill-rule="evenodd" clip-rule="evenodd" fill="url(#SVGID_72_)"/>
    <linearGradient id="SVGID_73_" gradientUnits="userSpaceOnUse" x1="-4533.138" y1="80.859" x2="-4488.058" y2="80.859" gradientTransform="matrix(-1 0 0 1 -4039.31 0)">
      <stop offset="0" stop-color="#b2b2b2"/>
      <stop offset=".003" stop-color="#b1b1b1"/>
      <stop offset=".256" stop-color="#676767"/>
      <stop offset=".437" stop-color="#383838"/>
      <stop offset=".527" stop-color="#262626"/>
    </linearGradient>
    <path d="M448.7 89.3s2.8 4.1 4.1 6.2l3.9 6.5s11-7 20.4-15.3c8.7-7.6 13.4-13.3 16.6-17.2-1.7-2.2-4.3-4.9-9.1-9.8 0 0 .2.5-1.3 2.3-4.7 5.5-23.9 22-31.8 27-1.9 1.4-2.8.3-2.8.3z" fill-rule="evenodd" clip-rule="evenodd" fill="url(#SVGID_73_)"/>
    <linearGradient id="wing_low_sf_2_" gradientUnits="userSpaceOnUse" x1="101.182" y1="207.725" x2="484.335" y2="207.725">
      <stop offset="0"/>
      <stop offset=".033" stop-color="#171717"/>
      <stop offset=".096" stop-color="#3c3c3c"/>
      <stop offset=".162" stop-color="#5b5b5b"/>
      <stop offset=".231" stop-color="#737373"/>
      <stop offset=".304" stop-color="#838383"/>
      <stop offset=".384" stop-color="#8d8d8d"/>
      <stop offset=".483" stop-color="#919191"/>
      <stop offset=".497" stop-color="#fff" stop-opacity=".768"/>
      <stop offset=".498" stop-opacity=".9"/>
      <stop offset=".516" stop-color="#090909" stop-opacity=".934"/>
      <stop offset=".546" stop-color="#212121" stop-opacity=".99"/>
      <stop offset=".551" stop-color="#262626"/>
      <stop offset=".557" stop-color="#323232"/>
      <stop offset=".565" stop-color="#393939"/>
      <stop offset=".588" stop-color="#3b3b3b"/>
      <stop offset="1"/>
    </linearGradient>
    <path id="wing_low_sf_1_" d="M360.4 163.8l-.6.3c-11.6 5.8-67.5 67.1-68.9 68.5-1.4 1.4-61.2-47.1-62.3-49-1.1-1.9-102.9-38.6-102.9-38.6l-24.6-2.2s1.7 6.3 8 15.2c25.6 16.2 72.1 24.6 102.4 38.2 31.9 14.4 56 39.9 65.3 61.6 9 21.1 9.2 26 14.6 26s8.2-13 12-21.1c18.1-38.7 49.7-65.7 117.4-84 47.5-12.8 53.2-23.1 53.2-23.1l10.1-23.9c.2-.1-109.4 25.8-123.7 32.1z" fill="url(#wing_low_sf_2_)"/>
    <linearGradient id="SVGID_74_" gradientUnits="userSpaceOnUse" x1="-2028.002" y1="197.828" x2="-2193.41" y2="165.676" gradientTransform="matrix(-1 0 0 1 -1922.216 0)">
      <stop offset="0"/>
      <stop offset=".557" stop-color="#181818"/>
      <stop offset="1" stop-color="#262626"/>
    </linearGradient>
    <path d="M97.4 136.1c4.1 10.7 10.1 20.8 10.1 20.8s13.7 7.9 28.8 12.8c20.9 6.9 45.3 12 63.8 16.2 22.1 5.1 35.2 11 50.2 21.1 24.1 16.2 29 28.4 37.2 42.1-4.6-11.6-4.9-19.4-21-39.3-23.2-28.8-38.1-35.4-71.3-47.7-11.4-4.2-27.4-10.5-46.6-17.7-19.2-7.2-44-19.9-58.9-29.9-.3-.2 4.3 12.8 7.7 21.6z" fill-rule="evenodd" clip-rule="evenodd" fill="url(#SVGID_74_)"/>
    <linearGradient id="SVGID_75_" gradientUnits="userSpaceOnUse" x1="291.307" y1="160.858" x2="495.181" y2="160.858">
      <stop offset="0"/>
      <stop offset=".031" stop-color="#292929"/>
      <stop offset=".066" stop-color="#4f4f4f"/>
      <stop offset=".105" stop-color="#717171"/>
      <stop offset=".148" stop-color="#8d8d8d"/>
      <stop offset=".195" stop-color="#a4a4a4"/>
      <stop offset=".249" stop-color="#b6b6b6"/>
      <stop offset=".315" stop-color="#c3c3c3"/>
      <stop offset=".402" stop-color="#cacaca"/>
      <stop offset=".606" stop-color="#ccc"/>
      <stop offset=".824" stop-color="#fff"/>
    </linearGradient>
    <path d="M320.5 176.7c9.4-10.3 18.3-17.6 33.3-26.8 27.6-16.9 64.6-23.7 102.9-48 23.3-14.7 37.1-32.4 37.1-32.4s1 7.9 1.3 17.1c.2 5.2 0 10.6-.6 16.4-.6 5.4-1.4 8.4-1.5 8.5-15.2 10.2-34 23.8-53.6 31.1-19.5 7.3-37.9 13.6-49.5 18-50.1 18.8-71.9 47.2-88.2 76.5-7.6 13.6-10.4 15.4-10.4 15.2 0-.6.8-32.4.8-37 .4 0 1.9-1 3.4-3.6 6.9-12.2 14.1-23 25-35z" fill-rule="evenodd" clip-rule="evenodd" fill="url(#SVGID_75_)"/>
    <linearGradient id="SVGID_76_" gradientUnits="userSpaceOnUse" x1="377.354" y1="149.754" x2="407.436" y2="248.148">
      <stop offset="0"/>
      <stop offset=".03"/>
      <stop offset=".339"/>
      <stop offset=".418" stop-color="#090909"/>
      <stop offset=".57" stop-color="#171717"/>
      <stop offset=".806"/>
    </linearGradient>
    <path d="M493.4 114.3c-15 10-41 22-60.3 29.2-19.4 7.2-30.8 10.3-42.3 14.5-32.4 11.9-53.1 24.3-77 53.8-16.2 19.9-18.7 30.6-22.5 39.5v32.2c1.5 0 2.5-.8 3.3-2 .5-.8.2-8.8.2-15.7 0-5.2 0-6.6 2.8-11.7 2.2-4 4.6-8.4 6.3-11 13.6-21 39-35.9 64.4-47.5 22.5-10.3 55.4-16.9 77.2-24.9 15.3-5.7 29.2-13.1 29.2-13.1s4.8-8.5 9.5-19.3c4-9 9.4-24.2 9.2-24z" fill-rule="evenodd" clip-rule="evenodd" fill="url(#SVGID_76_)"/>
    <linearGradient id="SVGID_77_" gradientUnits="userSpaceOnUse" x1="-2214.512" y1="160.713" x2="-2009.562" y2="160.713" gradientTransform="matrix(-1 0 0 1 -1922.216 0)">
      <stop offset="0"/>
      <stop offset=".038" stop-color="#1f1f1f"/>
      <stop offset=".085" stop-color="#3e3e3e"/>
      <stop offset=".13" stop-color="#545454"/>
      <stop offset=".173" stop-color="#616161"/>
      <stop offset=".212" stop-color="#666"/>
      <stop offset=".241" stop-color="#737373"/>
      <stop offset=".345" stop-color="#9e9e9e"/>
      <stop offset=".452" stop-color="#c1c1c1"/>
      <stop offset=".559" stop-color="#dcdcdc"/>
      <stop offset=".668" stop-color="#f0f0f0"/>
      <stop offset=".777" stop-color="#fbfbfb"/>
      <stop offset=".891" stop-color="#fff"/>
      <stop offset="1" stop-color="#adadad"/>
    </linearGradient>
    <path d="M287.2 211.9c2.2 3.9 4.2 3.4 4.9 3.4 0 5.8.1 36.1.1 36.7 0 .2-.6-2-8.2-15.6-30.2-54.1-59.2-64.4-86.5-74.7-11.6-4.3-33.1-12.6-52.6-19.9-19.5-7.3-41.5-19.6-56.7-29.7-.9-.6.2-3.7-.4-9.2-.7-5.9-.5-12.4-.4-17.6.3-9.3 2.2-16 2.2-16s13 17.8 36.1 32.6c14.1 9 28.5 15.6 45.4 22.6 21.4 8.9 38.7 14.2 59.7 27 16.9 10.3 25.6 18.2 34.7 28.5 11.5 12.9 17.5 24.3 21.7 31.9z" fill-rule="evenodd" clip-rule="evenodd" fill="url(#SVGID_77_)"/>
    <path d="M245.5 161.9c13.8 14.5 20.5 22.2 30.1 40.6 6.6 12.6 7.9 13.6 16.2 45.7l-2.1-31.6s-10.1-18-17.3-27c-11.7-14.7-14.2-17.7-26.9-27.7z" fill-rule="evenodd" clip-rule="evenodd"/>
    <path class="st17" d="M291.3 246.3v-29.4h1z"/>
    <path class="st15" d="M286.5 209c2.2 4 3.7 5.5 4.8 5.5 1.1 0 2.6-1.5 4.8-5.5 14.6-27 40-55.3 83.1-72.4 25.3-10 51.9-19.9 76-35-4.1-7.2-8.7-13.8-13.8-19.9-29.6-35.3-77.3-52.9-150.1-52.9-72.8.1-120.5 17.7-150.1 52.9-5.1 6.1-9.8 12.8-13.8 19.9 24.1 15.1 50.8 25 76 35 43.1 17.1 68.4 45.4 83.1 72.4z"/>
    <path class="st15" d="M299.3 275.4c-2 6.1-4.1 9.4-8 9.4-3.9 0-5.9-3.3-8-9.4-18.2-54.1-61.1-78.3-107.2-91.6-20.7-5.9-43.3-11.9-67.7-25.2-1.9 12.1-2.8 25.2-2.8 39.3 0 27.2 7.1 92.8 54.7 128.8 29 22 67.9 32.1 131.1 32.2 63.2-.1 102.1-10.2 131.1-32.2 47.4-36 54.7-101.6 54.7-128.8 0-14.1-1-27.2-2.8-39.3-24.4 13.3-47 19.2-67.7 25.2-46.3 13.3-89.3 37.5-107.4 91.6z"/>
    <path d="M474.3 158.7c1.9 12.1 2.8 25.2 2.8 39.3 0 27.2-7.3 92.8-54.7 128.8-29 22-67.9 32.1-131.1 32.2-63.2-.1-102.1-10.3-131.1-32.2-47.5-36-54.7-101.6-54.7-128.8 0-14.1 1-27.2 2.8-39.3l-.6-.3c-1.9 12.3-2.9 25.5-2.9 39.6 0 14.6 2.6 89.7 54.9 129.2 29.8 22.6 69.1 32.3 131.4 32.3 62.4-.1 101.7-9.8 131.5-32.3 52.3-39.7 54.9-114.6 54.9-129.2 0-14.1-.9-27.3-2.9-39.6 0 .1-.2.2-.3.3zM141.2 81.6c29.6-35.3 77.3-52.9 150.1-52.9 72.8.1 120.5 17.7 150.1 52.9 5.1 6.1 9.8 12.8 13.8 19.9.2-.1.3-.2.5-.3-4.1-7.1-8.7-13.8-13.9-20C411.5 45 363.7 28.1 291.3 28c-72.4.1-120.2 17-150.5 53.2-5.2 6.2-9.8 12.9-13.9 20 .2.1.3.2.5.3 4.1-7.1 8.7-13.7 13.8-19.9z"/>
    <path d="M410.8 182c-1.5.4-3 .8-4.4 1.3-26.4 7.6-47.5 17.6-64.3 30.5-9.8 7.6-18.3 16.3-25.3 26-7.6 10.5-13.6 22.4-18 35.4-2.2 6.5-4.2 9-7.4 9s-5.2-2.4-7.4-9c-4.4-13.1-10.4-25-18-35.4-7-9.7-15.5-18.4-25.3-26-16.8-13-37.9-23-64.3-30.5-1.5-.4-2.9-.8-4.4-1.3-19.5-5.6-40.6-11.6-63.4-24 0 .2-.1.4-.1.6 24.4 13.3 47 19.2 67.7 25.2 46.1 13.2 89.1 37.4 107.2 91.6 2 6.1 4.1 9.4 8 9.4 3.9 0 5.9-3.3 8-9.4 18.2-54.1 61.1-78.3 107.2-91.6 20.7-5.9 43.3-11.9 67.7-25.2 0-.2-.1-.4-.1-.6-22.8 12.4-44 18.5-63.4 24z"/>
    <path d="M474.3 158.7l.6-.3c0-.2-.1-.4-.1-.6l-.6.3c0 .2 0 .4.1.6zM108.4 158.1l-.6-.3c0 .2-.1.4-.1.6l.6.3c.1-.2.1-.4.1-.6zM127.4 101.6c-.2-.1-.3-.2-.5-.3-.1.2-.2.3-.3.5.2.1.3.2.5.3.1-.2.2-.4.3-.5zM455.5 102.1c.2-.1.3-.2.5-.3-.1-.2-.2-.3-.3-.5-.2.1-.3.2-.5.3.1.1.2.3.3.5z"/>
    <path class="st15" d="M406.3 183.3c-26.4 7.6-47.5 17.6-64.3 30.5-9.8 7.6-18.3 16.3-25.3 26-7.6 10.5-13.6 22.4-18 35.4-2.2 6.5-4.2 9-7.4 9s-5.2-2.4-7.4-9c-4.4-13.1-10.4-25-18-35.4-7-9.7-15.5-18.4-25.3-26-16.8-13-37.9-23-64.3-30.5-1.5-.4-2.9-.8-4.4-1.3-19.6-5.6-41-11.7-64-24.3-2 12.5-3 25.9-3 40.2 0 14.6 2.6 89.7 54.9 129.2 29.8 22.6 69.1 32.3 131.4 32.3 62.4-.1 101.7-9.8 131.5-32.3 52.3-39.7 54.9-114.6 54.9-129.2 0-14.4-1-27.8-3-40.2-23 12.6-44.3 18.7-64 24.3-1.3.4-2.8.9-4.3 1.3z"/>
    <path class="st15" d="M291.3 28.1c-72.4.1-120.2 17-150.5 53.2-5.3 6.4-10.1 13.2-14.2 20.5 3.8 2.4 7.7 4.7 11.8 7 18.7 10.3 38.5 18.1 57.7 25.7 2.4.9 4.7 1.9 7.1 2.8 37 14.6 64.8 38.9 82.8 72.1 2.1 3.9 3.8 5.8 5.3 5.8s3.2-1.8 5.3-5.8c18-33.2 45.8-57.5 82.8-72.1 2.3-.9 4.7-1.9 7.1-2.8 19.2-7.6 39-15.4 57.7-25.7 4.1-2.3 8-4.6 11.8-7-4.1-7.3-8.9-14.1-14.2-20.5-30.3-36.2-78.2-53.1-150.5-53.2z"/>
    <path class="st87" d="M138.1 109.2c18.7 10.3 38.6 18.1 57.8 25.7 2.4.9 4.7 1.9 7.1 2.8 36.8 14.6 64.6 38.8 82.5 71.9 2.3 4.2 4.1 6.1 5.8 6.1s3.5-1.9 5.8-6.1c17.9-33.1 45.7-57.3 82.5-71.9 2.3-.9 4.6-1.8 7-2.8h.1c19.2-7.6 39.1-15.4 57.8-25.7 4.1-2.3 8-4.6 11.8-7 .2-.1.3-.2.5-.3-.1-.2-.2-.3-.3-.5-4.1-7.3-8.9-14.2-14.2-20.6-30.4-36.3-78.4-53.3-151-53.4-72.5.1-120.5 17-150.9 53.4-5.4 6.4-10.1 13.2-14.2 20.6-.1.2-.2.3-.3.5.2.1.3.2.5.3 3.7 2.4 7.6 4.8 11.7 7zm2.7-27.9c30.3-36.2 78.1-53.1 150.5-53.2 72.4.1 120.2 17 150.5 53.2 5.3 6.4 10.1 13.2 14.2 20.5-3.8 2.4-7.7 4.7-11.8 7-18.7 10.3-38.5 18.1-57.7 25.7-2.4.9-4.7 1.9-7.1 2.8-37 14.6-64.8 38.9-82.8 72.1-2.1 3.9-3.8 5.8-5.3 5.8s-3.2-1.8-5.3-5.8c-18-33.2-45.8-57.5-82.8-72.1-2.3-.9-4.7-1.9-7.1-2.8-19.2-7.6-39-15.4-57.7-25.7-4.1-2.3-8-4.6-11.8-7 4.1-7.4 8.8-14.2 14.2-20.5z"/>
    <path class="st87" d="M475.3 157.4c0-.2-.1-.4-.1-.6-.2.1-.4.2-.5.3-23 12.6-44.4 18.7-64 24.3-1.5.4-3 .8-4.4 1.3-26.5 7.6-47.6 17.6-64.5 30.6-9.8 7.6-18.4 16.4-25.4 26.1-7.6 10.5-13.7 22.5-18.1 35.6-2.1 6.3-4 8.6-6.9 8.6-2.9 0-4.8-2.3-6.9-8.6-4.4-13.1-10.5-25.1-18.1-35.6-7-9.7-15.6-18.5-25.4-26.1-16.9-13-38-23-64.5-30.6-1.5-.4-2.9-.8-4.4-1.3-19.7-5.6-41-11.7-64-24.3-.2-.1-.4-.2-.5-.3 0 .2-.1.4-.1.6-2 12.6-3 26.1-3 40.5 0 14.7 2.7 90 55.1 129.7 29.9 22.7 69.4 32.4 131.8 32.5 62.5-.1 102-9.8 131.8-32.5 52.5-39.8 55.1-115 55.1-129.7 0-14.4-1-27.9-3-40.5zm-52.5 169.8c-29.8 22.6-69.1 32.3-131.5 32.3-62.3-.1-101.6-9.8-131.4-32.3C107.6 287.6 105 212.6 105 198c0-14.4 1-27.8 3-40.2 23 12.6 44.3 18.7 64 24.3 1.5.4 3 .8 4.4 1.3 26.4 7.6 47.5 17.6 64.3 30.5 9.8 7.6 18.3 16.3 25.3 26 7.6 10.5 13.6 22.4 18 35.4 2.2 6.5 4.2 9 7.4 9s5.2-2.4 7.4-9c4.4-13.1 10.4-25 18-35.4 7-9.7 15.5-18.4 25.3-26 16.8-13 37.9-23 64.3-30.5 1.5-.4 2.9-.8 4.4-1.3 19.6-5.6 41-11.7 64-24.3 2 12.5 3 25.9 3 40.2-.1 14.6-2.8 89.5-55 129.2z"/>
    <path d="M88.8 70.5c.4-1.9 1-1.7.6-.1-1.1 5.2-1.6 15.1-1.4 25.1.1 7.2 1.6 14.9 1.6 14.9-.9-.1-2.3.2-2.6 1.4-1.2-11.5-1.8-25.2 1.8-41.3z" fill-rule="evenodd" clip-rule="evenodd" fill="#fff"/>
    <path d="M494.4 71.1c-.4-1.9-1-1.7-.6-.1 1.1 5.2 1.4 15 1.2 25-.1 7.2-1.9 15-1.9 15 .9-.1 2.2 1.2 2.6 2.4 1.1-11.4 2.3-26.1-1.3-42.3z" fill-rule="evenodd" clip-rule="evenodd" fill="#ccc"/>
    <path d="M536.3 193.7c0 32.2-8 114.3-72.8 156.7-38.8 25.4-88.9 41.8-172.3 41.9-83.3-.1-133.4-16.5-172.3-41.9C54.2 308 46.2 225.9 46.2 193.7c0-58.1 18.3-101.4 47.1-132.3C132.3 19.5 195.2.4 291.2.3c96 .1 158.9 19.3 197.9 61.1 29 31 47.2 74 47.2 132.3zm-245 198c39.9-.1 73.5-3.8 102.7-11.5 25.7-6.7 48.3-16.7 69.3-30.3 67.3-44 72.5-130.7 72.5-156.2 0-28-4.3-53.6-12.7-76.2-7.8-20.9-19.3-39.7-34.3-55.8-19.6-21-44.9-36.1-77.3-46.1S339.8.8 291.3.7c-48.5 0-87.8 4.9-120.1 14.9-32.5 10-57.8 25.1-77.3 46.1-14.9 16-26.4 34.8-34.3 55.8-8.4 22.7-12.7 48.3-12.7 76.2 0 25.5 5.2 112.2 72.5 156.2 20.9 13.7 43.6 23.6 69.3 30.3 29.1 7.7 62.7 11.5 102.6 11.5z"/>
    <linearGradient id="SVGID_78_" gradientUnits="userSpaceOnUse" x1="181.076" y1="3.721" x2="401.701" y2="385.856">
      <stop offset="0" stop-color="#f2f2f2"/>
      <stop offset=".972" stop-color="#262626"/>
    </linearGradient>
    <path d="M291.3 391.7c-39.9-.1-73.5-3.8-102.7-11.5-25.7-6.7-48.3-16.7-69.3-30.3-67.3-44-72.5-130.7-72.5-156.2 0-27.9 4.3-53.5 12.7-76.2 7.8-21 19.4-39.8 34.3-55.8 19.6-21 44.9-36.1 77.3-46.1S242.8.8 291.2.7c48.5 0 87.8 4.9 120.2 14.9 32.5 10 57.8 25.1 77.3 46.1 15 16 26.5 34.8 34.3 55.8 8.4 22.6 12.7 48.2 12.7 76.2 0 25.5-5.2 112.2-72.5 156.2-20.9 13.7-43.6 23.6-69.3 30.3-29.1 7.7-62.7 11.5-102.6 11.5zm0-.6c39.9-.1 73.4-3.8 102.5-11.4 25.6-6.7 48.2-16.6 69.1-30.3 67.1-43.8 72.3-130.3 72.3-155.7 0-27.9-4.3-53.5-12.6-76-7.8-20.9-19.3-39.6-34.2-55.6-19.5-20.9-44.7-35.9-77.1-45.9-32.3-9.9-71.6-14.8-120-14.8-48.4 0-87.7 4.9-120 14.9-32.4 10-57.6 25-77.1 45.9-14.8 15.9-26.3 34.6-34.1 55.6-8.4 22.6-12.7 48.1-12.7 76 0 25.5 5.2 111.9 72.3 155.7 20.9 13.7 43.5 23.6 69.1 30.3 29.1 7.5 62.6 11.3 102.5 11.3z" fill="url(#SVGID_78_)"/>
    <path class="st9" d="M492.9 116.4c0-.2 0-.3-.2-.4-.2-.1-.3 0-.4.2-.1.2-5.8 16.2-8.4 22.4-2.6 6.3-8.8 17.7-8.9 17.8-.1.1 0 .3.1.4h.1c.1 0 .2-.1.2-.1s5.5-9.7 8.8-17.8c3.6-8.2 8.7-22.5 8.7-22.5zM89.8 116.4c0-.2 0-.3.2-.4.2-.1.3 0 .4.2.1.2 5.8 16.2 8.4 22.4 2.6 6.3 8.8 17.7 8.9 17.8.1.1 0 .3-.1.4h-.1c-.1 0-.2-.1-.2-.1s-5.5-9.7-8.8-17.8c-3.6-8.2-8.7-22.5-8.7-22.5z"/>
    <linearGradient id="SVGID_79_" gradientUnits="userSpaceOnUse" x1="155.783" y1="342.466" x2="432.036" y2="342.466">
      <stop offset="0"/>
      <stop offset=".238" stop-color="#262626"/>
      <stop offset=".503" stop-color="#565656"/>
      <stop offset="1"/>
    </linearGradient>
    <path d="M429.9 322.1c3.4-3 2.7-2.8-1.5.7-6 5-11.1 9.1-21.6 14.9-3.6 1.9-7.1 3.9-10.9 5.5-34.3 14-57.5 15.5-98.4 16.8-1 0-2.1.1-3.1.1h-3.1c-33.9 0-69.6-3.2-98.8-14-3.9-1.5-7.8-3.4-11.5-5.1-7.9-4.4-14.5-8.4-21.2-13.6-4.3-3.4-5.5-3.8-2-.9-2.4-1.7-2-1.3 1.3 1.6 25.6 23.4 54.3 32.8 97.4 35.8 11.8 1 24.5 1.4 38 1 13.6-.1 26.2-.8 38-2.2 43-4.3 71.3-14.6 96.2-38.8 3.1-3.2 3.6-3.6 1.2-1.8z" fill-rule="evenodd" clip-rule="evenodd" fill="url(#SVGID_79_)"/>
    <linearGradient id="SVGID_80_" gradientUnits="userSpaceOnUse" x1="291.287" y1="379.155" x2="291.287" y2="111.658">
      <stop offset=".121" stop-color="#333"/>
      <stop offset=".178" stop-color="#3c3c3c"/>
      <stop offset=".271" stop-color="#555"/>
      <stop offset=".39" stop-color="#7e7e7e"/>
      <stop offset=".529" stop-color="#b7b7b7"/>
      <stop offset=".67" stop-color="#f8f8f8"/>
      <stop offset=".727" stop-color="#fff"/>
    </linearGradient>
    <path d="M500.5 125.7c-1.4-4.1-2.9-8.1-4.6-12-.6-1.3-1.6-2.1-2.9-2.1-.6 0-1.3.2-1.9.6-30.3 20.6-62 31.8-87.4 40.7-22.8 8-44.4 15.6-58.6 25.9-10.4 7.5-21 17.9-31.3 30.8-7.5 9.3-15.3 22.3-22.6 37.4-7.3-15.1-15.1-28.1-22.6-37.4-10.4-13-20.9-23.3-31.3-30.8-14.2-10.2-35.7-17.8-58.6-25.9-25.5-9-57.1-20.1-87.4-40.7-.6-.4-1.2-.6-1.9-.6-1.2 0-2.3.8-2.8 2.1-1.7 3.9-3.2 7.9-4.6 12-7.4 21.7-11 45.9-11 74.1 0 29.7 6.3 103 65.1 143 18.2 12.4 38.7 21.3 62.8 27.1 25.3 6.2 55.2 9.2 91.5 9.3h1.6c36.3-.1 66.3-3.1 91.5-9.3 24.1-5.9 44.6-14.7 62.8-27.1 58.8-40 65.1-113.3 65.1-143 .1-28.2-3.5-52.4-10.9-74.1zm-54.4 216.6c-18.1 12.3-38.6 21.2-62.6 27-25.4 6.2-55.5 9.2-92 9.3h-.4c-36.5-.1-66.6-3.1-92-9.3-24-5.8-44.5-14.7-62.6-27C78 302.5 71.7 229.4 71.7 199.8c0-28.1 3.6-52.3 11-73.9 1.4-4 2.9-8.1 4.6-11.9.5-1.1 1.3-1.7 2.3-1.7.5 0 1 .2 1.5.5 30.3 20.6 62.1 31.8 87.5 40.8 22.8 8 44.3 15.6 58.4 25.8 11.2 8 21.7 18.8 31.2 30.7 8.4 10.4 16.3 24.3 23.1 38.3 6.7-14 14.7-27.9 23.1-38.3 9.6-11.9 20.1-22.7 31.2-30.7 14.1-10.2 35.6-17.8 58.4-25.8 25.5-9 57.2-20.2 87.5-40.8.5-.3 1-.5 1.5-.5 1 0 1.8.6 2.3 1.7 1.7 3.9 3.2 7.9 4.6 11.9 7.4 21.6 11 45.8 11 73.9 0 29.5-6.3 102.6-64.8 142.5z" fill="url(#SVGID_80_)"/>
    <path d="M120 69.8c-.2 0-.4-.1-.5-.2-.6-.6-1.4-1.2-2.2-1.7-.2-.1-.3-.3-.4-.6-.1-.6-.4-.6 1.3-2.3l.2-.2c2.5-2.6 5.7-5.5 8.7-8.1 5.3-4.6 11-8.9 17-12.7 11.6-7.5 24.9-13.9 39.4-18.9 14.7-5.1 31.1-8.9 48.8-11.5 17.6-2.5 37.2-3.8 58.1-3.9h1.8c20.9.1 40.5 1.4 58.1 3.9 17.7 2.5 34.2 6.4 48.8 11.5 14.5 5 27.7 11.4 39.4 18.9 5.9 3.8 11.6 8.1 17 12.7 2.9 2.5 6.2 5.5 8.7 8.1l.2.2c1.6 1.5 1.2 1.6 1.1 2.2 0 .2-.2.5-.4.6-.7.4-1.4 1-2.2 1.8-.1.1-.3.2-.5.2-.7 0-1.2-1.4-2-2.3-35.8-35.6-91.2-53-169.2-53-77.9.2-133.3 17.5-169.1 53.1-1 1.1-1.5 2.2-2.1 2.2z" fill="#b3b3b3"/>
    <linearGradient id="SVGID_81_" gradientUnits="userSpaceOnUse" x1="94.37" y1="292.989" x2="503.727" y2="143.995">
      <stop offset="0" stop-color="#4d4d4d"/>
      <stop offset=".207" stop-color="#999"/>
      <stop offset=".373" stop-color="#f2f2f2"/>
      <stop offset=".634" stop-color="#f0f0f0"/>
      <stop offset=".728" stop-color="#eaeaea"/>
      <stop offset=".795" stop-color="#dedede"/>
      <stop offset=".849" stop-color="#cdcdcd"/>
      <stop offset=".896" stop-color="#b7b7b7"/>
      <stop offset=".936" stop-color="#9c9c9c"/>
      <stop offset=".973" stop-color="#7d7d7d"/>
      <stop offset=".976" stop-color="#797979"/>
      <stop offset=".998" stop-color="#505050"/>
      <stop offset="1" stop-color="#4d4d4d"/>
    </linearGradient>
    <path d="M493.1 115.4l-.3-.7-.6.4c-10.4 7.1-22.1 13.4-40.2 21.9-14.9 7-31.2 12.8-47 18.4-22.6 8-43.9 15.5-57.6 25.5-21.1 15.3-40.8 40.5-54 69.1-1 2.1-1.4 2.6-2.1 2.6-.7 0-1.2-.5-2.1-2.6-13.2-28.7-32.9-53.9-54-69.1-13.8-10-35.1-17.5-57.6-25.5-15.8-5.6-32.1-11.4-47-18.4-18.1-8.5-29.7-14.9-40.2-21.9l-.6-.4-.3.7c-10.2 24-15.1 51.5-15.1 84.1 0 29.2 6.2 101.3 63.7 140.4 35.8 24.4 83.1 35.4 153.1 35.5h.4c70-.1 117.3-11.1 153.1-35.5 57.4-39.2 63.7-111.2 63.7-140.4-.2-32.6-5.1-60.1-15.3-84.1zM443.9 339c-35.7 24.3-82.7 35.2-152.6 35.3-69.9-.1-116.9-11-152.6-35.3-57-38.8-63.1-110.5-63.1-139.4 0-32.2 4.8-59.3 14.8-83 10.3 6.9 21.9 13.2 39.7 21.6 15 7 31.3 12.8 47.1 18.4 22.5 8 43.7 15.5 57.4 25.3 20.9 15.2 40.5 40.2 53.6 68.7.9 2 1.6 3.5 3.2 3.5 1.5 0 2.2-1.4 3.2-3.5 13.1-28.5 32.7-53.5 53.6-68.7 13.6-9.9 34.9-17.4 57.4-25.3 15.8-5.6 32.2-11.4 47.1-18.4 17.8-8.4 29.4-14.7 39.7-21.6 9.9 23.7 14.8 50.9 14.8 83-.2 28.9-6.3 100.6-63.3 139.4z" opacity=".9" fill="url(#SVGID_81_)"/>
    <linearGradient id="SVGID_82_" gradientUnits="userSpaceOnUse" x1="291.287" y1="375.486" x2="291.287" y2="114.766">
      <stop offset=".363" stop-color="#f2f2f2" stop-opacity="0"/>
      <stop offset=".429" stop-color="#e0e0e0" stop-opacity=".196"/>
      <stop offset=".56" stop-color="#b1b1b1" stop-opacity=".589"/>
      <stop offset=".698" stop-color="#797979"/>
      <stop offset=".79" stop-color="#515151"/>
      <stop offset=".875" stop-color="#323232"/>
      <stop offset=".948" stop-color="#202020"/>
      <stop offset="1" stop-color="#1a1a1a"/>
    </linearGradient>
    <path d="M493.1 115.4l-.3-.7-.6.4c-10.4 7.1-22.1 13.4-40.2 21.9-14.9 7-31.2 12.8-47 18.4-22.6 8-43.9 15.5-57.6 25.5-21.1 15.3-40.8 40.5-54 69.1-1 2.1-1.4 2.6-2.1 2.6-.7 0-1.2-.5-2.1-2.6-13.2-28.7-32.9-53.9-54-69.1-13.8-10-35.1-17.5-57.6-25.5-15.8-5.6-32.1-11.4-47-18.4-18.1-8.5-29.7-14.9-40.2-21.9l-.6-.4-.3.7c-10.2 24-15.1 51.5-15.1 84.1 0 29.2 6.2 101.3 63.7 140.4 35.8 24.4 83.1 35.4 153.1 35.5h.4c70-.1 117.3-11.1 153.1-35.5 57.4-39.2 63.7-111.2 63.7-140.4-.2-32.6-5.1-60.1-15.3-84.1zM443.9 339c-35.7 24.3-82.7 35.2-152.6 35.3-69.9-.1-116.9-11-152.6-35.3-57-38.8-63.1-110.5-63.1-139.4 0-32.2 4.8-59.3 14.8-83 10.3 6.9 21.9 13.2 39.7 21.6 15 7 31.3 12.8 47.1 18.4 22.5 8 43.7 15.5 57.4 25.3 20.9 15.2 40.5 40.2 53.6 68.7.9 2 1.6 3.5 3.2 3.5 1.5 0 2.2-1.4 3.2-3.5 13.1-28.5 32.7-53.5 53.6-68.7 13.6-9.9 34.9-17.4 57.4-25.3 15.8-5.6 32.2-11.4 47.1-18.4 17.8-8.4 29.4-14.7 39.7-21.6 9.9 23.7 14.8 50.9 14.8 83-.2 28.9-6.3 100.6-63.3 139.4z" fill="url(#SVGID_82_)"/>
    <path class="st17" d="M500 124.8c-1.4-4.1-2.9-8.1-4.6-12-.5-1.1-1.3-1.7-2.3-1.7-.5 0-1 .2-1.5.5-30.3 20.7-62.1 31.9-87.5 41-22.8 8.1-44.3 15.7-58.4 25.9-11.2 8.1-21.7 18.9-31.2 30.9-8.4 10.5-16.3 24.4-23.1 38.5-6.7-14.1-14.7-28-23.1-38.5-9.6-12-20.1-22.8-31.2-30.9-14.1-10.2-35.6-17.8-58.4-25.9-25.5-9-57.2-20.3-87.5-41-.5-.3-1-.5-1.5-.5-1 0-1.8.6-2.3 1.7-1.7 3.9-3.2 7.9-4.6 12-7.4 21.7-11 46-11 74.2 0 29.7 6.3 103.1 64.8 143.1 18.1 12.4 38.6 21.3 62.6 27.1 25.4 6.2 55.5 9.2 92 9.3h.4c36.5-.1 66.6-3.1 92-9.3 24-5.9 44.5-14.7 62.6-27.1 58.5-40 64.8-113.4 64.8-143.1-.1-28.2-3.6-52.5-11-74.2zm-55.5 215.1c-35.9 24.4-83.1 35.4-153.2 35.5-70.1-.1-117.4-11.1-153.2-35.5-57.4-39.1-63.6-111.2-63.6-140.4 0-32.9 5-60.6 15.4-84.7 10.5 7.2 22.3 13.7 40.7 22.3 14.9 7 31.2 12.8 47 18.4 22.6 8 43.9 15.5 57.6 25.5 21.1 15.3 40.8 40.5 54 69.1.9 1.9 1.3 2.5 1.9 2.6h.4c.6-.1 1.1-.7 1.9-2.6 13.2-28.7 32.9-53.9 54-69.1 13.7-10 35.1-17.5 57.6-25.5 15.8-5.6 32.1-11.4 47-18.4 18.3-8.6 30.1-15.1 40.7-22.3 10.3 24.1 15.4 51.8 15.4 84.7 0 29.2-6.1 101.3-63.6 140.4zM484.4 59.4c-3.2 1.4-13.6 4.9-18 6.3h-.1c-.3.1-.6.1-.9.1-.7 0-1.3-.2-1.6-.6-2.5-2.6-5.7-5.6-8.7-8.1-5.3-4.6-11-8.8-16.9-12.7-11.6-7.5-24.8-13.8-39.3-18.8-14.6-5.1-31-8.9-48.7-11.4-17.8-2.5-37.5-3.9-58.6-3.9h-.6c-21.1 0-40.8 1.3-58.6 3.9-17.7 2.5-34.1 6.4-48.7 11.4-14.4 5-27.6 11.3-39.3 18.8-5.9 3.8-11.6 8.1-16.9 12.7-3 2.5-6.1 5.5-8.6 8-.4.4-1.2.8-1.8.8-.3 0-.5-.1-.8-.2h-.1c-4.4-1.4-14.7-4.9-17.8-6.2l-.4.3c1 .4 3 1.5 5.3 2.5 4.7 2.1 10.5 4.7 11.6 5.1.5.2 1.1.4 1.7.8.9.5 1.7 1.2 2.3 1.8.2.2.4.5.6.7.5.7 11.9 15.9 14.1 18.9l.2-.3c-.1-.1-9.4-14-12.2-18.1-.9-1.2-.7-3.2.1-4.1 35.9-35.7 91.4-53 169.6-53.1 78.2.1 133.7 17.5 169.7 53.2.8.9.9 2.8 0 4-2.6 3.8-10.6 15.7-12.2 18l.2.3.2-.3c2.2-3 13.2-18 13.7-18.8.1-.2.4-.4.6-.7.6-.6 1.5-1.4 2.3-1.9.6-.4 1.4-.8 1.9-1 1.1-.4 6.8-3 11.5-5.1 2.3-1.1 4.6-1.8 5.6-2.3h-.4z"/>
    <path class="st15" d="M176.2 183.3c26.4 7.6 47.5 17.6 64.3 30.5 9.8 7.6 18.3 16.3 25.3 26 7.6 10.5 13.6 22.4 18 35.4 2.2 6.5 4.2 9 7.4 9s5.2-2.4 7.4-9c4.4-13.1 10.4-25 18-35.4 7-9.7 15.5-18.4 25.3-26 16.8-13 37.9-23 64.3-30.5 1.5-.4 2.9-.8 4.4-1.3 19.6-5.6 41-11.7 64-24.3 2 12.5 3 25.9 3 40.2 0 14.6-2.6 89.7-54.9 129.2-29.8 22.6-69.1 32.3-131.4 32.3-62.4-.1-101.7-9.8-131.5-32.3-52.3-39.7-54.9-114.6-54.9-129.2 0-14.4 1-27.8 3-40.2 23 12.6 44.3 18.7 64 24.3 1.4.4 2.9.9 4.3 1.3z"/>
    <path class="st15" d="M291.3 28.1c72.4.1 120.2 17 150.5 53.2 5.3 6.4 10.1 13.2 14.2 20.5-3.8 2.4-7.7 4.7-11.8 7-18.7 10.3-38.5 18.1-57.7 25.7-2.4.9-4.7 1.9-7.1 2.8-37 14.6-64.8 38.9-82.8 72.1-2.1 3.9-3.8 5.8-5.3 5.8s-3.2-1.8-5.3-5.8c-18-33.2-45.8-57.5-82.8-72.1-2.3-.9-4.7-1.9-7.1-2.8-19.2-7.6-39-15.4-57.7-25.7-4.1-2.3-8-4.6-11.8-7 4.1-7.3 8.9-14.1 14.2-20.5 30.3-36.2 78.1-53.1 150.5-53.2z"/>
    <path class="st96" d="M456.3 102.3c.2-.1.3-.2.5-.3-.1-.2-.2-.3-.3-.5-4.1-7.3-8.9-14.2-14.2-20.6-30.4-36.3-78.4-53.3-150.9-53.4-72.6.1-120.5 17-151 53.4-5.4 6.4-10.1 13.2-14.2 20.6-.1.2-.2.3-.3.5.2.1.3.2.5.3 3.8 2.4 7.7 4.7 11.8 7 18.7 10.3 38.6 18.1 57.8 25.7h.1c2.3.9 4.7 1.8 7 2.8 36.8 14.6 64.6 38.8 82.5 71.9 2.3 4.2 4.1 6.1 5.8 6.1s3.5-1.9 5.8-6.1c17.9-33.1 45.7-57.3 82.5-71.9 2.3-.9 4.7-1.9 7.1-2.8 19.2-7.6 39.1-15.4 57.8-25.7 4-2.3 7.9-4.7 11.7-7zm-.3-.6c-3.8 2.4-7.7 4.7-11.8 7-18.7 10.3-38.5 18.1-57.7 25.7-2.4.9-4.7 1.9-7.1 2.8-37 14.6-64.8 38.9-82.8 72.1-2.1 3.9-3.8 5.8-5.3 5.8s-3.2-1.8-5.3-5.8c-18-33.2-45.8-57.5-82.8-72.1-2.3-.9-4.7-1.9-7.1-2.8-19.2-7.6-39-15.4-57.7-25.7-4.1-2.3-8-4.6-11.8-7 4.1-7.3 8.9-14.1 14.2-20.5C171.1 45 219 28.1 291.3 28c72.4.1 120.2 17 150.5 53.2 5.3 6.4 10.1 13.2 14.2 20.5z"/>
    <path class="st96" d="M104.3 198c0 14.7 2.7 89.9 55.1 129.7 29.9 22.7 69.3 32.4 131.8 32.5 62.4-.1 101.8-9.8 131.8-32.5 52.5-39.7 55.1-115 55.1-129.7 0-14.5-1-28-3-40.5 0-.2-.1-.4-.1-.6-.2.1-.4.2-.5.3-23 12.6-44.4 18.7-64 24.3-1.5.4-3 .8-4.4 1.3-26.5 7.6-47.6 17.6-64.5 30.6-9.8 7.6-18.4 16.4-25.4 26.1-7.6 10.5-13.7 22.5-18.1 35.6-2.1 6.3-4 8.6-6.9 8.6-2.9 0-4.8-2.3-6.9-8.6-4.4-13.1-10.5-25.1-18.1-35.6-7-9.7-15.6-18.5-25.4-26.1-16.9-13-38-23-64.5-30.6-1.5-.4-2.9-.8-4.4-1.3-19.7-5.6-41-11.7-64-24.3-.2-.1-.4-.2-.5-.3 0 .2-.1.4-.1.6-2 12.5-3 26-3 40.5zm.6 0c0-14.4 1-27.8 3-40.2 23 12.6 44.3 18.7 64 24.3 1.5.4 3 .8 4.4 1.3 26.4 7.6 47.5 17.6 64.3 30.5 9.8 7.6 18.3 16.3 25.3 26 7.6 10.5 13.6 22.4 18 35.4 2.2 6.5 4.2 9 7.4 9s5.2-2.4 7.4-9c4.4-13.1 10.4-25 18-35.4 7-9.7 15.5-18.4 25.3-26 16.8-13 37.9-23 64.3-30.5 1.5-.4 2.9-.8 4.4-1.3 19.6-5.6 41-11.7 64-24.3 2 12.5 3 25.9 3 40.2 0 14.6-2.6 89.7-54.9 129.2-29.8 22.6-69.1 32.3-131.4 32.3-62.4-.1-101.7-9.8-131.5-32.3-52.4-39.7-55-114.6-55-129.2z"/>
    <linearGradient id="SVGID_83_" gradientUnits="userSpaceOnUse" x1="-2666.428" y1="3.721" x2="-2445.803" y2="385.856" gradientTransform="matrix(-1 0 0 1 -2264.93 0)">
      <stop offset="0" stop-color="#e6e6e6"/>
      <stop offset="1" stop-color="#333"/>
    </linearGradient>
    <path d="M291.3 391.7c-39.9-.1-73.5-3.8-102.7-11.5-25.7-6.7-48.3-16.7-69.3-30.3-67.3-44-72.5-130.7-72.5-156.2 0-28 4.3-53.6 12.7-76.2 7.8-20.9 19.3-39.7 34.3-55.8 19.6-21 44.9-36.1 77.3-46.1S242.8.8 291.3.7c48.5 0 87.8 4.9 120.1 14.9 32.5 10 57.8 25.1 77.3 46.1 14.9 16 26.4 34.8 34.3 55.8 8.4 22.7 12.7 48.3 12.7 76.2 0 25.5-5.2 112.2-72.5 156.2-20.9 13.7-43.6 23.6-69.3 30.3-29.1 7.7-62.7 11.5-102.6 11.5zm0-.6c39.9-.1 73.4-3.8 102.5-11.4 25.6-6.7 48.2-16.6 69.1-30.3 67.1-43.8 72.3-130.3 72.3-155.7 0-27.8-4.3-53.4-12.7-76-7.8-21-19.3-39.7-34.1-55.6-19.5-20.9-44.7-35.9-77.1-45.9-32.3-9.9-71.6-14.8-120-14.8-48.4 0-87.7 4.9-120 14.9-32.4 10-57.6 25-77.1 45.9-14.9 16-26.4 34.7-34.2 55.6-8.4 22.5-12.6 48.1-12.6 76 0 25.5 5.2 111.9 72.3 155.7 20.9 13.7 43.5 23.6 69.1 30.3 29.1 7.5 62.6 11.3 102.5 11.3z" fill="url(#SVGID_83_)"/>
  </g>
</svg>
