<svg xmlns="http://www.w3.org/2000/svg" viewBox="0 0 169 42">
  <defs>
    <style>
      .cls-2{fill:#fff}
    </style>
  </defs>
  <g id="logo-53">
    <path class="cls-2" d="M50.9 29.4h12v-3.6h-7.7V12.2H51v17.2ZM69.9 27c-1.7 0-2.6-1.5-2.6-3.7s.9-3.7 2.6-3.7 2.6 1.5 2.6 3.7-.9 3.7-2.6 3.7Zm0 2.7c4 0 6.6-2.8 6.6-6.5s-2.6-6.5-6.6-6.5-6.6 2.8-6.6 6.5 2.6 6.5 6.6 6.5ZM83.3 33.6c1.8 0 3.4-.4 4.5-1.4 1-.9 1.6-2.2 1.6-4.1V17h-3.7v1.3c-.7-1-1.8-1.7-3.5-1.7-3 0-5.2 2.5-5.2 6.1s2.6 5.8 5.3 5.8 2.4-.6 3.1-1.4v1.2c0 1.5-.7 2.4-2.4 2.4s-1.9-.6-2.2-1.2H77c.4 2.6 2.6 4 6 4Zm0-7.8c-1.5 0-2.4-1.2-2.4-3s1-3.1 2.4-3.1 2.5 1.4 2.5 3-.8 3.1-2.5 3.1ZM97.2 27c-1.7 0-2.6-1.5-2.6-3.7s.9-3.7 2.6-3.7 2.6 1.5 2.6 3.7-.9 3.7-2.6 3.7Zm0 2.7c4 0 6.6-2.8 6.6-6.5s-2.6-6.5-6.6-6.5-6.6 2.8-6.6 6.5 2.6 6.5 6.6 6.5ZM104.9 29.4h3.9V17.1h-3.9v12.3Zm0-14h3.9v-3.2h-3.9v3.2ZM110.5 33.4h3.9v-5.3c.8 1 1.9 1.7 3.5 1.7 3.2 0 5.4-2.5 5.4-6.5s-2-6.5-5.3-6.5-2.9.7-3.7 1.8v-1.5h-3.7v16.3Zm6.4-6.7c-1.7 0-2.6-1.4-2.6-3.4s.9-3.5 2.6-3.5 2.5 1.4 2.5 3.5-.9 3.4-2.4 3.4ZM129.7 29.7c3.2 0 5.6-1.4 5.6-4.1s-2.5-3.7-4.7-4.1c-1.6-.3-3-.4-3-1.3s.7-1.1 1.7-1.1 1.8.3 2 1.4h3.6c-.2-2.4-2.1-3.9-5.5-3.9s-5.3 1.3-5.3 3.9 2.3 3.5 4.4 3.8c1.6.3 3.1.4 3.1 1.5s-.7 1.2-1.9 1.2-2.1-.6-2.3-1.8h-3.7c.1 2.7 2.4 4.4 6 4.4ZM140.6 29.7c1.7 0 2.8-.7 3.7-1.9v1.5h3.7V17h-3.9v6.9c0 1.5-.8 2.5-2.2 2.5s-1.8-.7-1.8-2.1v-7.2h-3.9v8.1c0 2.7 1.5 4.6 4.3 4.6ZM149.8 29.4h3.9v-6.9c0-1.5.7-2.5 1.9-2.5s1.7.8 1.7 2.1v7.3h3.9v-6.9c0-1.5.7-2.5 1.9-2.5s1.7.8 1.7 2.1v7.3h3.9v-8c0-2.8-1.4-4.7-4.2-4.7s-2.9.7-3.9 2.2c-.6-1.3-1.8-2.2-3.5-2.2s-3 .8-3.7 2.1V17h-3.7v12.3Z"/>
    <path d="M20.7 1C32 1 41.1 10.1 41.1 21.4S32 41.8 20.7 41.8.3 32.6.3 21.4 9.4 1 20.7 1Zm19.6 20.4c0-10.9-8.8-19.7-19.6-19.7s-1.7 0-2.6.2h1.7c10.3 0 18.7 8.4 18.7 18.7s-8.4 18.7-18.7 18.7S1.9 31.8 1.1 22.2c.5 10.4 9 18.7 19.6 18.7s19.6-8.8 19.6-19.6Zm-2.6-.8c0-9.9-8-18-18-18s-1.6 0-2.4.2h1.5c9.4 0 17.1 7.6 17.1 17.1S28.3 37 18.8 37s-16.2-7-17-15.7c.4 9.6 8.3 17.2 17.9 17.2s18-8 18-18ZM18.8 3.5c9 0 16.3 7.3 16.3 16.3s-7.3 16.3-16.3 16.3-15.9-7-16.3-15.7c.7 7.9 7.3 14 15.4 14S33.3 27.5 33.3 19 26.4 3.6 17.9 3.6h-1.3c.7 0 1.5-.2 2.2-.2ZM32.6 19C32.6 10.9 26 4.4 18 4.4s-1.4 0-2 .1h1.1c7.6 0 13.8 6.2 13.8 13.8s-6.2 13.8-13.8 13.8S3.9 26.6 3.3 19.6c.3 7.8 6.7 14.1 14.6 14.1s14.6-6.6 14.6-14.6ZM17 5.3c7.2 0 13 5.8 13 13s-5.8 13-13 13S4.2 25.7 4 18.7c.6 6.1 5.8 10.9 12.1 10.9s12.1-5.4 12.1-12.1S22.8 5.4 16.1 5.4h-.9c.6 0 1.2-.1 1.8-.1Zm10.4 12.2c0-6.3-5.1-11.3-11.3-11.3s-1.1 0-1.7.1h.8c5.8 0 10.5 4.7 10.5 10.5S21 27.3 15.2 27.3s-9.9-4.1-10.4-9.4c.2 6.1 5.2 11 11.3 11s11.3-5.1 11.3-11.3ZM15.1 7c5.3 0 9.7 4.3 9.7 9.7s-4.3 9.7-9.7 9.7-9.6-4.2-9.7-9.5c.5 4.4 4.2 7.8 8.8 7.8s8.8-3.9 8.8-8.8-3.9-8.8-8.8-8.8h-.6c.5 0 1-.1 1.5-.1Zm7.1 8.9c0-4.4-3.6-8-8-8s-.9 0-1.3.1h.4c4 0 7.2 3.2 7.2 7.2s-3.2 7.2-7.2 7.2-6.7-2.7-7.1-6.3c0 4.4 3.6 7.9 8 7.9s8-3.6 8-8Zm-8.9-7.1c3.5 0 6.4 2.9 6.4 6.4s-2.9 6.4-6.4 6.4-6.4-2.9-6.4-6.4c.4 2.7 2.7 4.7 5.4 4.7s5.5-2.5 5.5-5.5-2.5-5.5-5.5-5.5h-.2 1.1Zm3.8 5.6c0-2.6-2.1-4.7-4.7-4.7s-4.7 2.1-4.7 4.7 2.1 4.7 4.7 4.7 4.7-2.1 4.7-4.7Z" style="fill:#fff;fill-rule:evenodd"/>
  </g>
</svg>
